<?xml version="1.0" encoding="utf-8"?>
<!-- Generator: Adobe Illustrator 16.0.0, SVG Export Plug-In . SVG Version: 6.00 Build 0)  -->
<!DOCTYPE svg PUBLIC "-//W3C//DTD SVG 1.1//EN" "http://www.w3.org/Graphics/SVG/1.1/DTD/svg11.dtd">
<svg version="1.1" id="Calque_1" xmlns="http://www.w3.org/2000/svg" xmlns:xlink="http://www.w3.org/1999/xlink" x="0px" y="0px"
	 width="566.93px" height="595.28px" viewBox="0 0 566.93 595.28" enable-background="new 0 0 566.93 595.28" xml:space="preserve">
<path fill="#65C7EF" d="M137.059,279.774c0-5.244-4.266-9.511-9.51-9.511H91.276c-5.244,0-9.51,4.267-9.51,9.511v36.271
	c0,5.244,4.266,9.51,9.51,9.51h36.272c5.244,0,9.51-4.266,9.51-9.51V279.774z M133.577,316.046c0,3.324-2.704,6.028-6.028,6.028
	H91.276c-3.324,0-6.027-2.704-6.027-6.028v-36.271c0-3.324,2.704-6.028,6.027-6.028h36.272c3.324,0,6.028,2.704,6.028,6.028V316.046
	z"/>
<path fill="#65C7EF" d="M137.059,366.261c0-5.244-4.266-9.51-9.51-9.51H91.276c-5.244,0-9.51,4.266-9.51,9.51v36.273
	c0,5.244,4.266,9.51,9.51,9.51h36.272c5.244,0,9.51-4.266,9.51-9.51V366.261z M133.577,402.534c0,3.324-2.704,6.028-6.028,6.028
	H91.276c-3.324,0-6.027-2.704-6.027-6.028v-36.273c0-3.324,2.704-6.028,6.027-6.028h36.272c3.324,0,6.028,2.704,6.028,6.028V402.534
	z"/>
<g>
	<path fill="#65C7EF" d="M161.677,204.83v1.516h-6.601v4.567h5.344v1.458h-5.344v4.691h6.601v1.516h-8.472V204.83H161.677z"/>
	<path fill="#65C7EF" d="M171.395,206.979c-0.058,0.096-0.119,0.168-0.184,0.215c-0.062,0.048-0.147,0.072-0.249,0.072
		c-0.108,0-0.235-0.054-0.379-0.163c-0.145-0.108-0.326-0.229-0.547-0.359c-0.221-0.131-0.486-0.251-0.797-0.36
		c-0.311-0.108-0.685-0.164-1.127-0.164c-0.416,0-0.782,0.056-1.103,0.168c-0.319,0.112-0.587,0.264-0.802,0.456
		c-0.214,0.192-0.376,0.418-0.484,0.677s-0.163,0.539-0.163,0.839c0,0.384,0.095,0.702,0.284,0.955
		c0.188,0.252,0.438,0.469,0.748,0.647c0.311,0.18,0.662,0.335,1.055,0.466c0.393,0.131,0.796,0.267,1.209,0.408
		c0.412,0.141,0.815,0.299,1.209,0.475s0.744,0.398,1.055,0.667c0.311,0.268,0.56,0.598,0.748,0.988
		c0.188,0.391,0.283,0.87,0.283,1.439c0,0.601-0.103,1.166-0.308,1.693c-0.204,0.528-0.503,0.987-0.896,1.376
		c-0.394,0.39-0.876,0.697-1.448,0.921c-0.572,0.224-1.223,0.335-1.952,0.335c-0.889,0-1.7-0.162-2.432-0.485
		c-0.732-0.322-1.357-0.759-1.875-1.309l0.536-0.883c0.051-0.07,0.114-0.13,0.188-0.178s0.155-0.072,0.245-0.072
		c0.134,0,0.288,0.072,0.46,0.215c0.173,0.144,0.389,0.303,0.648,0.475c0.258,0.173,0.571,0.332,0.939,0.475
		c0.367,0.144,0.816,0.216,1.348,0.216c0.441,0,0.835-0.061,1.18-0.182c0.346-0.122,0.639-0.292,0.879-0.513
		c0.239-0.221,0.422-0.484,0.551-0.792c0.127-0.307,0.191-0.649,0.191-1.026c0-0.416-0.094-0.756-0.282-1.022
		c-0.188-0.265-0.437-0.487-0.744-0.667c-0.307-0.178-0.657-0.331-1.051-0.456c-0.394-0.125-0.796-0.252-1.208-0.383
		c-0.412-0.131-0.815-0.283-1.209-0.456c-0.394-0.173-0.743-0.397-1.051-0.672c-0.307-0.275-0.554-0.619-0.742-1.031
		c-0.189-0.412-0.284-0.922-0.284-1.53c0-0.486,0.095-0.957,0.284-1.411c0.188-0.454,0.461-0.856,0.818-1.208
		c0.359-0.352,0.802-0.633,1.329-0.845c0.527-0.21,1.134-0.316,1.819-0.316c0.767,0,1.467,0.122,2.1,0.365s1.188,0.595,1.659,1.055
		L171.395,206.979z"/>
	<path fill="#65C7EF" d="M181.563,206.979c-0.058,0.096-0.119,0.168-0.184,0.215c-0.062,0.048-0.147,0.072-0.249,0.072
		c-0.108,0-0.235-0.054-0.379-0.163c-0.145-0.108-0.326-0.229-0.547-0.359c-0.222-0.131-0.486-0.251-0.797-0.36
		c-0.311-0.108-0.685-0.164-1.127-0.164c-0.416,0-0.782,0.056-1.103,0.168s-0.588,0.264-0.802,0.456
		c-0.214,0.192-0.376,0.418-0.484,0.677s-0.163,0.539-0.163,0.839c0,0.384,0.095,0.702,0.283,0.955
		c0.189,0.252,0.438,0.469,0.748,0.647c0.311,0.18,0.663,0.335,1.055,0.466c0.394,0.131,0.797,0.267,1.21,0.408
		c0.412,0.141,0.815,0.299,1.209,0.475s0.744,0.398,1.055,0.667c0.311,0.268,0.56,0.598,0.748,0.988
		c0.188,0.391,0.283,0.87,0.283,1.439c0,0.601-0.103,1.166-0.308,1.693c-0.205,0.528-0.503,0.987-0.896,1.376
		c-0.394,0.39-0.877,0.697-1.448,0.921c-0.573,0.224-1.224,0.335-1.952,0.335c-0.889,0-1.7-0.162-2.432-0.485
		c-0.732-0.322-1.357-0.759-1.876-1.309l0.537-0.883c0.051-0.07,0.114-0.13,0.188-0.178s0.155-0.072,0.245-0.072
		c0.134,0,0.287,0.072,0.46,0.215c0.173,0.144,0.388,0.303,0.647,0.475c0.259,0.173,0.572,0.332,0.939,0.475
		c0.368,0.144,0.816,0.216,1.348,0.216c0.442,0,0.836-0.061,1.181-0.182c0.346-0.122,0.639-0.292,0.878-0.513
		c0.24-0.221,0.423-0.484,0.552-0.792c0.127-0.307,0.191-0.649,0.191-1.026c0-0.416-0.094-0.756-0.282-1.022
		c-0.189-0.265-0.437-0.487-0.744-0.667c-0.307-0.178-0.657-0.331-1.051-0.456c-0.394-0.125-0.797-0.252-1.209-0.383
		c-0.412-0.131-0.814-0.283-1.208-0.456c-0.394-0.173-0.743-0.397-1.051-0.672c-0.307-0.275-0.554-0.619-0.743-1.031
		c-0.188-0.412-0.283-0.922-0.283-1.53c0-0.486,0.095-0.957,0.283-1.411c0.189-0.454,0.462-0.856,0.819-1.208
		c0.358-0.352,0.802-0.633,1.329-0.845c0.527-0.21,1.134-0.316,1.818-0.316c0.768,0,1.467,0.122,2.101,0.365
		c0.633,0.243,1.187,0.595,1.659,1.055L181.563,206.979z"/>
	<path fill="#65C7EF" d="M193.161,204.83v1.516h-6.601v4.567h5.344v1.458h-5.344v4.691h6.601v1.516h-8.472V204.83H193.161z"/>
	<path fill="#65C7EF" d="M205.526,215.737c0.102,0,0.195,0.042,0.278,0.125l0.729,0.796c-0.563,0.652-1.246,1.16-2.049,1.525
		s-1.77,0.547-2.902,0.547c-0.991,0-1.889-0.171-2.695-0.513c-0.806-0.342-1.493-0.822-2.062-1.439s-1.012-1.358-1.324-2.221
		c-0.313-0.863-0.47-1.812-0.47-2.849c0-1.036,0.168-1.985,0.503-2.849c0.336-0.864,0.809-1.605,1.416-2.226
		c0.607-0.621,1.334-1.102,2.182-1.444c0.849-0.342,1.782-0.513,2.807-0.513c1.01,0,1.882,0.157,2.613,0.471
		c0.732,0.313,1.384,0.738,1.953,1.275l-0.605,0.854c-0.044,0.064-0.095,0.117-0.152,0.159s-0.141,0.062-0.25,0.062
		c-0.083,0-0.17-0.03-0.264-0.091c-0.093-0.061-0.202-0.136-0.331-0.226c-0.128-0.089-0.278-0.185-0.45-0.288
		c-0.173-0.103-0.378-0.198-0.615-0.288c-0.236-0.09-0.511-0.165-0.824-0.226c-0.312-0.061-0.674-0.091-1.084-0.091
		c-0.736,0-1.409,0.125-2.02,0.378s-1.136,0.612-1.578,1.08c-0.441,0.466-0.785,1.036-1.031,1.707
		c-0.246,0.672-0.37,1.423-0.37,2.254c0,0.857,0.124,1.622,0.37,2.293c0.246,0.671,0.582,1.239,1.008,1.702
		c0.426,0.464,0.929,0.817,1.511,1.06c0.582,0.244,1.208,0.365,1.88,0.365c0.41,0,0.776-0.024,1.104-0.072
		c0.326-0.048,0.629-0.123,0.907-0.226c0.276-0.102,0.536-0.231,0.776-0.389c0.239-0.157,0.481-0.343,0.724-0.561
		C205.319,215.785,205.423,215.737,205.526,215.737z"/>
</g>
<g>
	<path fill="#65C7EF" d="M162.895,302.225c0.102,0,0.195,0.042,0.278,0.125l0.729,0.796c-0.563,0.652-1.246,1.16-2.049,1.524
		c-0.804,0.365-1.77,0.548-2.901,0.548c-0.992,0-1.891-0.17-2.695-0.513c-0.807-0.343-1.494-0.822-2.062-1.44
		c-0.57-0.615-1.012-1.357-1.325-2.221c-0.313-0.862-0.47-1.812-0.47-2.849s0.168-1.985,0.503-2.849
		c0.336-0.864,0.809-1.605,1.416-2.226c0.607-0.621,1.334-1.102,2.182-1.444c0.849-0.342,1.782-0.514,2.807-0.514
		c1.011,0,1.882,0.157,2.613,0.471c0.732,0.313,1.384,0.738,1.953,1.275l-0.605,0.854c-0.044,0.064-0.095,0.117-0.152,0.159
		c-0.058,0.041-0.141,0.062-0.25,0.062c-0.083,0-0.17-0.03-0.264-0.092c-0.093-0.061-0.202-0.136-0.331-0.226
		c-0.128-0.089-0.278-0.185-0.451-0.287c-0.172-0.103-0.377-0.198-0.613-0.288c-0.237-0.09-0.512-0.164-0.825-0.226
		c-0.313-0.061-0.675-0.091-1.084-0.091c-0.736,0-1.409,0.126-2.02,0.379s-1.136,0.612-1.578,1.079
		c-0.441,0.467-0.785,1.036-1.031,1.707c-0.247,0.672-0.37,1.424-0.37,2.255c0,0.857,0.123,1.621,0.37,2.293
		c0.246,0.671,0.582,1.239,1.008,1.703c0.425,0.463,0.929,0.816,1.511,1.06c0.582,0.244,1.209,0.364,1.881,0.364
		c0.409,0,0.775-0.024,1.103-0.072c0.326-0.048,0.629-0.123,0.907-0.225c0.277-0.102,0.537-0.231,0.776-0.389
		s0.481-0.344,0.724-0.562C162.688,302.271,162.792,302.225,162.895,302.225z"/>
	<path fill="#65C7EF" d="M174.819,291.317v1.516h-6.601v4.566h5.344v1.458h-5.344v4.691h6.601v1.515h-8.472v-13.746H174.819z"/>
	<path fill="#65C7EF" d="M179.356,303.5h5.947v1.563h-7.809v-13.746h1.861V303.5z"/>
	<path fill="#65C7EF" d="M194.399,293.466c-0.058,0.096-0.119,0.168-0.184,0.216c-0.062,0.048-0.147,0.072-0.249,0.072
		c-0.108,0-0.235-0.055-0.379-0.163c-0.145-0.108-0.326-0.229-0.547-0.359c-0.221-0.132-0.486-0.251-0.797-0.36
		c-0.31-0.108-0.685-0.163-1.126-0.163c-0.417,0-0.783,0.056-1.104,0.168c-0.319,0.111-0.587,0.264-0.802,0.455
		c-0.214,0.192-0.376,0.418-0.484,0.677s-0.163,0.539-0.163,0.84c0,0.384,0.095,0.701,0.283,0.954
		c0.189,0.253,0.438,0.469,0.749,0.647c0.311,0.18,0.662,0.335,1.054,0.466c0.395,0.131,0.797,0.267,1.211,0.407
		c0.412,0.141,0.814,0.299,1.208,0.475s0.744,0.398,1.055,0.667s0.56,0.599,0.748,0.988c0.188,0.391,0.284,0.869,0.284,1.439
		c0,0.601-0.104,1.166-0.309,1.693c-0.204,0.527-0.503,0.986-0.896,1.376c-0.394,0.391-0.877,0.697-1.448,0.921
		c-0.572,0.225-1.223,0.336-1.952,0.336c-0.889,0-1.7-0.162-2.432-0.485c-0.732-0.322-1.357-0.759-1.875-1.309l0.536-0.882
		c0.051-0.071,0.114-0.131,0.188-0.18c0.073-0.047,0.155-0.07,0.245-0.07c0.134,0,0.287,0.07,0.46,0.215s0.389,0.303,0.648,0.476
		c0.258,0.173,0.571,0.33,0.939,0.475s0.816,0.216,1.348,0.216c0.441,0,0.835-0.061,1.181-0.182
		c0.345-0.122,0.638-0.293,0.877-0.513c0.24-0.223,0.424-0.484,0.552-0.793c0.127-0.308,0.191-0.648,0.191-1.026
		c0-0.415-0.094-0.756-0.282-1.021c-0.188-0.265-0.437-0.487-0.744-0.667c-0.307-0.178-0.657-0.33-1.051-0.455
		s-0.796-0.252-1.208-0.384c-0.413-0.131-0.815-0.283-1.209-0.455c-0.394-0.173-0.743-0.397-1.051-0.672
		c-0.307-0.275-0.554-0.619-0.742-1.031c-0.189-0.413-0.284-0.923-0.284-1.53c0-0.486,0.095-0.956,0.284-1.41
		c0.188-0.454,0.461-0.856,0.818-1.209c0.359-0.352,0.802-0.633,1.329-0.845c0.527-0.21,1.134-0.316,1.819-0.316
		c0.767,0,1.467,0.122,2.1,0.365c0.633,0.242,1.188,0.595,1.659,1.055L194.399,293.466z"/>
	<path fill="#65C7EF" d="M208.836,305.063h-1.438c-0.166,0-0.301-0.04-0.403-0.123c-0.102-0.083-0.179-0.19-0.229-0.317
		l-1.285-3.319h-6.17l-1.285,3.319c-0.045,0.115-0.121,0.219-0.229,0.307c-0.108,0.09-0.244,0.134-0.403,0.134h-1.438l5.497-13.746
		h1.89L208.836,305.063z M199.829,299.96h5.131l-2.157-5.593c-0.142-0.345-0.278-0.776-0.413-1.295
		c-0.07,0.263-0.14,0.504-0.207,0.725c-0.066,0.221-0.132,0.414-0.196,0.58L199.829,299.96z"/>
</g>
<g>
	<path fill="#65C7EF" d="M161.677,368.212v1.517h-6.601v4.566h5.344v1.457h-5.344v4.691h6.601v1.515h-8.472v-13.746H161.677z
		 M160.832,364.863l-2.821,2.073c-0.108,0.076-0.205,0.127-0.287,0.152c-0.084,0.027-0.191,0.039-0.326,0.039h-1.324l2.024-1.947
		c0.064-0.064,0.123-0.115,0.179-0.153c0.053-0.039,0.109-0.071,0.167-0.096c0.058-0.026,0.122-0.044,0.191-0.054
		c0.07-0.011,0.16-0.015,0.269-0.015H160.832z"/>
	<path fill="#65C7EF" d="M174.042,379.12c0.102,0,0.195,0.041,0.278,0.124l0.729,0.797c-0.563,0.651-1.246,1.16-2.05,1.523
		c-0.803,0.366-1.769,0.548-2.901,0.548c-0.991,0-1.89-0.17-2.695-0.513s-1.493-0.821-2.062-1.44
		c-0.57-0.615-1.012-1.356-1.324-2.22c-0.313-0.863-0.471-1.813-0.471-2.85s0.169-1.986,0.504-2.848
		c0.336-0.865,0.809-1.606,1.416-2.228c0.607-0.619,1.334-1.1,2.182-1.442s1.782-0.514,2.806-0.514c1.011,0,1.882,0.156,2.614,0.471
		c0.732,0.313,1.384,0.737,1.953,1.274l-0.605,0.854c-0.044,0.064-0.095,0.118-0.152,0.159c-0.058,0.042-0.141,0.063-0.25,0.063
		c-0.084,0-0.17-0.031-0.264-0.092c-0.093-0.062-0.202-0.136-0.331-0.226c-0.128-0.09-0.278-0.187-0.451-0.288
		s-0.377-0.198-0.614-0.287c-0.236-0.09-0.511-0.165-0.824-0.227c-0.313-0.061-0.675-0.091-1.084-0.091
		c-0.736,0-1.409,0.126-2.02,0.38c-0.61,0.252-1.137,0.611-1.578,1.079c-0.441,0.465-0.785,1.035-1.032,1.707
		c-0.246,0.672-0.369,1.423-0.369,2.254c0,0.856,0.123,1.622,0.369,2.294c0.247,0.671,0.583,1.239,1.008,1.702
		c0.426,0.464,0.929,0.816,1.512,1.061c0.582,0.243,1.208,0.364,1.88,0.364c0.41,0,0.776-0.024,1.103-0.072
		c0.327-0.049,0.63-0.124,0.907-0.226s0.537-0.231,0.776-0.388c0.24-0.158,0.482-0.344,0.725-0.562
		C173.834,379.167,173.938,379.12,174.042,379.12z"/>
	<path fill="#65C7EF" d="M190.264,375.09c0,1.03-0.163,1.976-0.489,2.835c-0.326,0.86-0.787,1.601-1.382,2.222
		c-0.594,0.621-1.309,1.102-2.144,1.442c-0.836,0.343-1.758,0.514-2.768,0.514c-1.011,0-1.932-0.171-2.763-0.514
		c-0.833-0.341-1.545-0.821-2.14-1.442s-1.055-1.361-1.382-2.222c-0.326-0.859-0.489-1.805-0.489-2.835
		c0-1.029,0.163-1.974,0.489-2.835c0.327-0.858,0.787-1.602,1.382-2.226c0.595-0.623,1.307-1.107,2.14-1.453
		c0.831-0.346,1.752-0.518,2.763-0.518c1.01,0,1.932,0.172,2.768,0.518c0.835,0.346,1.55,0.83,2.144,1.453
		c0.595,0.624,1.056,1.367,1.382,2.226C190.101,373.116,190.264,374.061,190.264,375.09z M188.354,375.09
		c0-0.843-0.115-1.602-0.346-2.272c-0.23-0.672-0.556-1.239-0.979-1.704c-0.422-0.464-0.934-0.82-1.535-1.069
		c-0.601-0.248-1.272-0.374-2.014-0.374c-0.736,0-1.404,0.126-2.005,0.374c-0.602,0.249-1.115,0.605-1.541,1.069
		c-0.424,0.465-0.752,1.032-0.982,1.704c-0.229,0.671-0.345,1.43-0.345,2.272c0,0.845,0.115,1.601,0.345,2.27
		c0.23,0.668,0.559,1.234,0.982,1.697c0.426,0.463,0.939,0.819,1.541,1.065c0.601,0.246,1.269,0.369,2.005,0.369
		c0.741,0,1.413-0.123,2.014-0.369c0.602-0.246,1.113-0.603,1.535-1.065c0.423-0.463,0.748-1.029,0.979-1.697
		C188.239,376.69,188.354,375.935,188.354,375.09z"/>
	<path fill="#65C7EF" d="M194.667,380.396h5.947v1.562h-7.809v-13.746h1.861V380.396z"/>
	<path fill="#65C7EF" d="M211.14,368.212v1.517h-6.602v4.566h5.345v1.457h-5.345v4.691h6.602v1.515h-8.472v-13.746H211.14z"/>
	<path fill="#65C7EF" d="M153.205,404.983v-13.747h4.384c0.845,0,1.571,0.082,2.184,0.248c0.61,0.168,1.111,0.404,1.506,0.711
		c0.393,0.307,0.684,0.683,0.872,1.128c0.188,0.444,0.284,0.945,0.284,1.501c0,0.338-0.054,0.665-0.158,0.979
		c-0.105,0.312-0.267,0.604-0.48,0.872c-0.215,0.27-0.483,0.509-0.806,0.72c-0.323,0.212-0.701,0.385-1.137,0.519
		c1.004,0.199,1.762,0.561,2.272,1.084c0.513,0.524,0.769,1.215,0.769,2.073c0,0.58-0.107,1.112-0.321,1.593
		c-0.214,0.479-0.527,0.891-0.94,1.236c-0.413,0.345-0.917,0.613-1.516,0.8c-0.598,0.19-1.28,0.284-2.049,0.284H153.205z
		 M155.066,397.395h2.456c0.524,0,0.979-0.058,1.362-0.172c0.383-0.115,0.701-0.274,0.954-0.48c0.253-0.204,0.439-0.453,0.561-0.743
		c0.122-0.29,0.183-0.609,0.183-0.954c0-0.806-0.242-1.397-0.729-1.774c-0.487-0.378-1.24-0.566-2.265-0.566h-2.522V397.395z
		 M155.066,398.72v4.786h2.974c0.53,0,0.986-0.061,1.367-0.182c0.381-0.122,0.694-0.292,0.94-0.515
		c0.246-0.219,0.427-0.481,0.542-0.787c0.115-0.302,0.173-0.637,0.173-1.001c0-0.71-0.252-1.271-0.754-1.684
		s-1.261-0.618-2.277-0.618H155.066z"/>
	<path fill="#65C7EF" d="M178.388,398.115c0,1.029-0.164,1.974-0.49,2.834c-0.325,0.859-0.787,1.601-1.381,2.221
		c-0.595,0.621-1.31,1.102-2.145,1.444s-1.757,0.514-2.768,0.514s-1.932-0.171-2.763-0.514c-0.832-0.343-1.544-0.823-2.14-1.444
		c-0.594-0.62-1.055-1.361-1.381-2.221c-0.327-0.86-0.49-1.805-0.49-2.834c0-1.031,0.163-1.976,0.49-2.835
		c0.326-0.86,0.787-1.604,1.381-2.227c0.596-0.624,1.308-1.108,2.14-1.454c0.831-0.345,1.752-0.517,2.763-0.517
		s1.933,0.172,2.768,0.517c0.835,0.346,1.55,0.83,2.145,1.454c0.594,0.623,1.056,1.366,1.381,2.227
		C178.224,396.14,178.388,397.084,178.388,398.115z M176.478,398.115c0-0.845-0.115-1.604-0.346-2.274
		c-0.229-0.672-0.555-1.239-0.979-1.703c-0.421-0.464-0.934-0.819-1.534-1.068c-0.602-0.25-1.273-0.375-2.015-0.375
		c-0.736,0-1.404,0.125-2.005,0.375c-0.601,0.249-1.114,0.604-1.54,1.068c-0.425,0.464-0.753,1.031-0.982,1.703
		c-0.23,0.671-0.346,1.43-0.346,2.274c0,0.843,0.115,1.601,0.346,2.269c0.229,0.668,0.558,1.235,0.982,1.698
		c0.426,0.463,0.939,0.818,1.54,1.065c0.601,0.246,1.269,0.369,2.005,0.369c0.741,0,1.413-0.123,2.015-0.369
		c0.601-0.247,1.113-0.603,1.534-1.065c0.424-0.463,0.749-1.03,0.979-1.698C176.362,399.716,176.478,398.958,176.478,398.115z"/>
	<path fill="#65C7EF" d="M186.272,403.506c0.569,0,1.078-0.097,1.526-0.288c0.446-0.191,0.825-0.46,1.136-0.806
		c0.311-0.345,0.548-0.759,0.71-1.237c0.163-0.479,0.244-1.007,0.244-1.582v-8.356h1.853v8.356c0,0.792-0.127,1.528-0.38,2.205
		c-0.252,0.679-0.613,1.267-1.084,1.762c-0.47,0.495-1.044,0.883-1.722,1.164s-1.438,0.423-2.283,0.423
		c-0.844,0-1.605-0.142-2.283-0.423s-1.254-0.669-1.727-1.164c-0.474-0.495-0.836-1.083-1.089-1.762
		c-0.253-0.677-0.379-1.413-0.379-2.205v-8.356h1.851v8.346c0,0.575,0.082,1.103,0.245,1.583s0.4,0.893,0.711,1.238
		c0.31,0.345,0.69,0.615,1.142,0.811C185.192,403.409,185.702,403.506,186.272,403.506z"/>
	<path fill="#65C7EF" d="M196.796,403.42h5.948v1.563h-7.81v-13.747h1.861V403.42z"/>
	<path fill="#65C7EF" d="M206.658,403.42h5.948v1.563h-7.81v-13.747h1.861V403.42z"/>
	<path fill="#65C7EF" d="M223.131,391.236v1.516h-6.601v4.566h5.344v1.458h-5.344v4.692h6.601v1.515h-8.472v-13.747H223.131z"/>
</g>
<path fill="#65C7EF" d="M137.059,193.287c0-1.296-0.267-2.582-0.778-3.765l-2.703,4.154v35.882c0,3.324-2.704,6.029-6.028,6.029
	H91.276c-3.324,0-6.027-2.705-6.027-6.029v-36.271c0-3.324,2.704-6.029,6.027-6.029h36.272c0.394,0,0.795,0.042,1.198,0.125
	l1.989-3.056c-1.022-0.366-2.092-0.551-3.187-0.551H91.276c-5.244,0-9.51,4.267-9.51,9.511v36.271c0,5.244,4.266,9.511,9.51,9.511
	h36.272c5.244,0,9.51-4.267,9.51-9.511V193.287z"/>
<path fill="#65C7EF" d="M334.86,193.287c0-5.244-4.266-9.511-9.51-9.511h-36.272c-5.244,0-9.51,4.267-9.51,9.511v36.271
	c0,5.244,4.266,9.511,9.51,9.511h36.272c5.244,0,9.51-4.267,9.51-9.511V193.287z M331.378,229.558c0,3.324-2.704,6.029-6.027,6.029
	h-36.272c-3.324,0-6.028-2.705-6.028-6.029v-36.271c0-3.324,2.704-6.029,6.028-6.029h36.272c3.323,0,6.027,2.705,6.027,6.029
	V229.558z"/>
<path fill="#65C7EF" d="M334.86,366.261c0-5.244-4.266-9.51-9.51-9.51h-36.272c-5.244,0-9.51,4.266-9.51,9.51v36.273
	c0,5.244,4.266,9.51,9.51,9.51h36.272c5.244,0,9.51-4.266,9.51-9.51V366.261z M331.378,402.534c0,3.324-2.704,6.028-6.027,6.028
	h-36.272c-3.324,0-6.028-2.704-6.028-6.028v-36.273c0-3.324,2.704-6.028,6.028-6.028h36.272c3.323,0,6.027,2.704,6.027,6.028
	V402.534z"/>
<g>
	<path fill="#65C7EF" d="M359.375,214.092c0.067,0.169,0.133,0.341,0.196,0.513c0.064-0.179,0.132-0.35,0.203-0.513
		c0.069-0.163,0.149-0.328,0.239-0.494l4.651-8.452c0.084-0.147,0.171-0.237,0.26-0.269c0.09-0.032,0.217-0.048,0.385-0.048h1.371
		v13.747h-1.631v-10.102c0-0.134,0.004-0.278,0.01-0.432s0.016-0.31,0.029-0.47l-4.711,8.596c-0.16,0.288-0.383,0.432-0.671,0.432
		h-0.269c-0.288,0-0.512-0.144-0.672-0.432l-4.816-8.625c0.02,0.166,0.034,0.33,0.043,0.489c0.01,0.16,0.016,0.307,0.016,0.441
		v10.102h-1.632V204.83h1.372c0.166,0,0.294,0.016,0.384,0.048c0.09,0.032,0.175,0.122,0.26,0.269l4.748,8.461
		C359.23,213.761,359.308,213.922,359.375,214.092z"/>
	<path fill="#65C7EF" d="M381.339,218.577H379.9c-0.166,0-0.302-0.042-0.403-0.125s-0.18-0.188-0.23-0.316l-1.284-3.32h-6.17
		l-1.285,3.32c-0.045,0.115-0.122,0.217-0.229,0.306c-0.109,0.09-0.244,0.135-0.403,0.135h-1.438l5.496-13.747h1.89L381.339,218.577
		z M372.332,213.473h5.131l-2.157-5.593c-0.143-0.345-0.278-0.777-0.414-1.295c-0.069,0.262-0.139,0.504-0.206,0.724
		c-0.066,0.221-0.132,0.414-0.196,0.581L372.332,213.473z"/>
	<path fill="#65C7EF" d="M385.118,212.84v5.737h-1.851V204.83h3.885c0.869,0,1.621,0.088,2.254,0.264
		c0.633,0.176,1.156,0.43,1.568,0.762c0.412,0.333,0.718,0.734,0.917,1.205c0.198,0.47,0.297,0.996,0.297,1.578
		c0,0.486-0.077,0.94-0.23,1.362c-0.153,0.421-0.375,0.801-0.666,1.136c-0.292,0.336-0.646,0.622-1.065,0.859
		c-0.419,0.236-0.894,0.416-1.424,0.537c0.23,0.134,0.434,0.33,0.613,0.585l4.011,5.458h-1.65c-0.34,0-0.589-0.131-0.748-0.394
		l-3.569-4.912c-0.108-0.153-0.228-0.264-0.354-0.331c-0.129-0.068-0.32-0.101-0.576-0.101H385.118z M385.118,211.487h1.947
		c0.543,0,1.022-0.065,1.435-0.197c0.412-0.131,0.758-0.316,1.036-0.557c0.278-0.24,0.487-0.526,0.628-0.858s0.211-0.7,0.211-1.103
		c0-0.819-0.271-1.436-0.811-1.852s-1.344-0.624-2.412-0.624h-2.034V211.487z"/>
	<path fill="#65C7EF" d="M397.474,210.854h0.7c0.243,0,0.437-0.031,0.581-0.092c0.143-0.061,0.279-0.165,0.408-0.312l4.575-5.18
		c0.141-0.16,0.276-0.273,0.407-0.34s0.3-0.101,0.505-0.101h1.582l-5.237,5.919c-0.135,0.147-0.261,0.272-0.379,0.374
		c-0.119,0.103-0.245,0.186-0.38,0.25c0.179,0.058,0.336,0.144,0.471,0.259c0.134,0.115,0.274,0.259,0.422,0.432l5.469,6.514h-1.611
		c-0.122,0-0.226-0.009-0.308-0.029c-0.084-0.02-0.156-0.045-0.216-0.077c-0.062-0.031-0.116-0.073-0.169-0.125
		c-0.051-0.051-0.102-0.105-0.152-0.163l-4.748-5.458c-0.071-0.077-0.137-0.143-0.197-0.197c-0.062-0.054-0.131-0.1-0.211-0.139
		c-0.081-0.038-0.173-0.065-0.279-0.082c-0.105-0.016-0.235-0.023-0.388-0.023h-0.845v6.293h-1.851V204.83h1.851V210.854z"/>
	<path fill="#65C7EF" d="M416.968,204.83v1.516h-6.601v4.567h5.345v1.458h-5.345v4.691h6.601v1.516h-8.471V204.83H416.968z"/>
	<path fill="#65C7EF" d="M429.007,204.83v1.563h-4.442v12.184h-1.86v-12.184h-4.46v-1.563H429.007z"/>
	<path fill="#65C7EF" d="M433.171,218.577h-1.862V204.83h1.862V218.577z"/>
	<path fill="#65C7EF" d="M438.183,204.892c0.08,0.042,0.171,0.126,0.273,0.254l7.963,10.36c-0.021-0.166-0.032-0.327-0.039-0.484
		c-0.007-0.157-0.01-0.309-0.01-0.456v-9.737h1.631v13.747h-0.939c-0.147,0-0.271-0.025-0.37-0.077
		c-0.099-0.051-0.196-0.137-0.293-0.259l-7.952-10.351c0.014,0.16,0.022,0.317,0.029,0.47c0.006,0.154,0.01,0.295,0.01,0.422v9.795
		h-1.632V204.83h0.96C437.979,204.83,438.103,204.851,438.183,204.892z"/>
	<path fill="#65C7EF" d="M457.489,217.224c0.371,0,0.711-0.018,1.021-0.053c0.311-0.036,0.603-0.088,0.878-0.159
		c0.274-0.07,0.534-0.154,0.776-0.254c0.243-0.099,0.487-0.212,0.729-0.34v-3.031h-2.13c-0.121,0-0.219-0.035-0.293-0.105
		c-0.073-0.071-0.109-0.157-0.109-0.259v-1.056h4.221v5.277c-0.345,0.25-0.705,0.467-1.08,0.652
		c-0.373,0.185-0.773,0.34-1.199,0.465c-0.424,0.125-0.88,0.218-1.366,0.278c-0.485,0.061-1.015,0.091-1.583,0.091
		c-0.997,0-1.912-0.171-2.744-0.513c-0.831-0.342-1.547-0.822-2.147-1.439c-0.603-0.617-1.071-1.358-1.407-2.221
		c-0.334-0.863-0.503-1.812-0.503-2.849c0-1.049,0.165-2.005,0.494-2.868s0.8-1.603,1.41-2.221c0.61-0.617,1.35-1.095,2.217-1.434
		c0.866-0.339,1.836-0.509,2.911-0.509c0.543,0,1.049,0.04,1.516,0.12c0.468,0.081,0.899,0.196,1.3,0.346
		c0.4,0.15,0.77,0.333,1.108,0.547c0.338,0.214,0.655,0.456,0.95,0.724l-0.528,0.845c-0.109,0.173-0.249,0.259-0.422,0.259
		c-0.104,0-0.215-0.035-0.336-0.105c-0.159-0.09-0.339-0.198-0.537-0.327c-0.198-0.128-0.44-0.251-0.724-0.369
		c-0.285-0.119-0.621-0.22-1.008-0.303s-0.846-0.124-1.377-0.124c-0.774,0-1.474,0.125-2.102,0.378
		c-0.626,0.253-1.16,0.614-1.603,1.084c-0.439,0.47-0.779,1.04-1.016,1.708c-0.236,0.668-0.355,1.418-0.355,2.249
		c0,0.87,0.123,1.646,0.369,2.327s0.595,1.258,1.041,1.732c0.448,0.473,0.979,0.834,1.593,1.084
		C456.069,217.099,456.747,217.224,457.489,217.224z"/>
</g>
<g>
	<path fill="#65C7EF" d="M360.849,291.317v1.516h-6.601v4.806h5.641v1.516h-5.641v5.909h-1.871v-13.746H360.849z"/>
	<path fill="#65C7EF" d="M365.443,305.063h-1.862v-13.746h1.862V305.063z"/>
	<path fill="#65C7EF" d="M370.455,291.38c0.08,0.041,0.172,0.126,0.273,0.254l7.963,10.359c-0.021-0.166-0.032-0.326-0.039-0.483
		s-0.009-0.309-0.009-0.455v-9.737h1.63v13.746h-0.939c-0.147,0-0.271-0.024-0.369-0.076c-0.1-0.051-0.197-0.138-0.294-0.259
		l-7.952-10.352c0.014,0.16,0.022,0.317,0.029,0.471c0.006,0.153,0.01,0.294,0.01,0.422v9.794h-1.632v-13.746h0.96
		C370.252,291.317,370.375,291.338,370.455,291.38z"/>
	<path fill="#65C7EF" d="M394.941,305.063h-1.438c-0.166,0-0.301-0.04-0.402-0.123c-0.103-0.083-0.18-0.19-0.23-0.317l-1.285-3.319
		h-6.17l-1.284,3.319c-0.046,0.115-0.122,0.219-0.23,0.307c-0.108,0.09-0.243,0.134-0.403,0.134h-1.438l5.497-13.746h1.89
		L394.941,305.063z M385.935,299.96h5.131l-2.157-5.593c-0.142-0.345-0.278-0.776-0.413-1.295c-0.07,0.263-0.14,0.504-0.206,0.725
		c-0.067,0.221-0.133,0.414-0.197,0.58L385.935,299.96z"/>
	<path fill="#65C7EF" d="M398.007,291.38c0.08,0.041,0.171,0.126,0.272,0.254l7.964,10.359c-0.021-0.166-0.032-0.326-0.039-0.483
		s-0.01-0.309-0.01-0.455v-9.737h1.631v13.746h-0.94c-0.146,0-0.27-0.024-0.369-0.076c-0.099-0.051-0.196-0.138-0.293-0.259
		l-7.952-10.352c0.013,0.16,0.022,0.317,0.029,0.471c0.005,0.153,0.009,0.294,0.009,0.422v9.794h-1.631v-13.746h0.96
		C397.803,291.317,397.927,291.338,398.007,291.38z"/>
	<path fill="#65C7EF" d="M420.872,302.225c0.102,0,0.195,0.042,0.278,0.125l0.729,0.796c-0.563,0.652-1.246,1.16-2.049,1.524
		c-0.803,0.365-1.77,0.548-2.901,0.548c-0.992,0-1.89-0.17-2.695-0.513s-1.494-0.822-2.062-1.44
		c-0.57-0.615-1.012-1.357-1.325-2.221c-0.313-0.862-0.47-1.812-0.47-2.849s0.169-1.985,0.503-2.849
		c0.336-0.864,0.809-1.605,1.416-2.226c0.607-0.621,1.335-1.102,2.182-1.444c0.849-0.342,1.783-0.514,2.807-0.514
		c1.011,0,1.882,0.157,2.613,0.471c0.732,0.313,1.385,0.738,1.953,1.275l-0.605,0.854c-0.044,0.064-0.095,0.117-0.152,0.159
		c-0.058,0.041-0.141,0.062-0.25,0.062c-0.083,0-0.17-0.03-0.264-0.092c-0.092-0.061-0.202-0.136-0.33-0.226
		c-0.129-0.089-0.279-0.185-0.451-0.287c-0.173-0.103-0.378-0.198-0.614-0.288c-0.237-0.09-0.512-0.164-0.825-0.226
		c-0.312-0.061-0.674-0.091-1.084-0.091c-0.735,0-1.409,0.126-2.02,0.379s-1.136,0.612-1.578,1.079
		c-0.441,0.467-0.785,1.036-1.031,1.707c-0.246,0.672-0.369,1.424-0.369,2.255c0,0.857,0.123,1.621,0.369,2.293
		c0.246,0.671,0.582,1.239,1.008,1.703c0.426,0.463,0.929,0.816,1.511,1.06c0.582,0.244,1.209,0.364,1.881,0.364
		c0.409,0,0.776-0.024,1.103-0.072s0.629-0.123,0.907-0.225c0.277-0.102,0.537-0.231,0.776-0.389s0.481-0.344,0.724-0.562
		C420.665,302.271,420.77,302.225,420.872,302.225z"/>
	<path fill="#65C7EF" d="M432.797,291.317v1.516h-6.601v4.566h5.344v1.458h-5.344v4.691h6.601v1.515h-8.472v-13.746H432.797z"/>
</g>
<g>
	<path fill="#65C7EF" d="M363.688,391.552h-1.438c-0.166,0-0.302-0.043-0.403-0.126s-0.18-0.188-0.23-0.315l-1.284-3.319h-6.17
		l-1.285,3.319c-0.045,0.115-0.122,0.217-0.23,0.306c-0.108,0.09-0.243,0.136-0.402,0.136h-1.438l5.496-13.748h1.89L363.688,391.552
		z M354.681,386.447h5.131l-2.157-5.593c-0.143-0.346-0.278-0.778-0.414-1.294c-0.069,0.262-0.139,0.503-0.206,0.723
		c-0.066,0.222-0.133,0.414-0.196,0.58L354.681,386.447z"/>
	<path fill="#65C7EF" d="M374.71,388.712c0.102,0,0.195,0.041,0.278,0.124l0.729,0.797c-0.563,0.652-1.246,1.16-2.049,1.525
		c-0.804,0.364-1.77,0.546-2.902,0.546c-0.991,0-1.89-0.171-2.695-0.514c-0.806-0.342-1.493-0.822-2.062-1.438
		c-0.569-0.618-1.012-1.358-1.324-2.222c-0.313-0.863-0.47-1.812-0.47-2.85c0-1.035,0.168-1.984,0.503-2.849
		c0.336-0.863,0.809-1.605,1.416-2.225c0.607-0.621,1.334-1.103,2.182-1.445c0.849-0.342,1.782-0.513,2.807-0.513
		c1.01,0,1.882,0.156,2.613,0.47c0.732,0.313,1.384,0.738,1.953,1.276l-0.605,0.854c-0.044,0.063-0.095,0.116-0.152,0.157
		c-0.058,0.042-0.141,0.062-0.25,0.062c-0.083,0-0.17-0.029-0.264-0.091c-0.093-0.06-0.202-0.135-0.331-0.225
		c-0.128-0.09-0.278-0.185-0.451-0.288c-0.172-0.103-0.377-0.198-0.614-0.287c-0.236-0.09-0.511-0.165-0.824-0.226
		c-0.312-0.062-0.674-0.091-1.084-0.091c-0.736,0-1.409,0.126-2.02,0.378c-0.61,0.254-1.137,0.612-1.578,1.08
		c-0.441,0.467-0.785,1.035-1.031,1.706c-0.246,0.672-0.37,1.424-0.37,2.255c0,0.858,0.124,1.621,0.37,2.293
		s0.582,1.239,1.008,1.702c0.425,0.465,0.929,0.817,1.511,1.061s1.208,0.365,1.88,0.365c0.41,0,0.776-0.024,1.104-0.071
		c0.326-0.048,0.629-0.123,0.907-0.227c0.276-0.103,0.536-0.231,0.776-0.389c0.239-0.155,0.481-0.343,0.724-0.56
		C374.503,388.76,374.606,388.712,374.71,388.712z"/>
	<path fill="#65C7EF" d="M389.31,391.552h-1.869v-6.256h-7.406v6.256h-1.871v-13.748h1.871v6.13h7.406v-6.13h1.869V391.552z"/>
	<path fill="#65C7EF" d="M403.979,391.552h-1.438c-0.166,0-0.302-0.043-0.403-0.126s-0.18-0.188-0.23-0.315l-1.284-3.319h-6.17
		l-1.285,3.319c-0.045,0.115-0.122,0.217-0.23,0.306c-0.108,0.09-0.243,0.136-0.402,0.136h-1.438l5.496-13.748h1.89L403.979,391.552
		z M394.972,386.447h5.131l-2.157-5.593c-0.143-0.346-0.278-0.778-0.414-1.294c-0.069,0.262-0.139,0.503-0.206,0.723
		c-0.066,0.222-0.133,0.414-0.196,0.58L394.972,386.447z"/>
	<path fill="#65C7EF" d="M413.812,377.804v1.563h-4.442v12.185h-1.86v-12.185h-4.461v-1.563H413.812z"/>
	<path fill="#65C7EF" d="M422.811,379.953c-0.058,0.096-0.119,0.168-0.184,0.215c-0.063,0.048-0.147,0.072-0.249,0.072
		c-0.108,0-0.235-0.054-0.379-0.164c-0.145-0.106-0.326-0.227-0.547-0.358c-0.221-0.131-0.486-0.251-0.797-0.359
		s-0.686-0.164-1.127-0.164c-0.416,0-0.783,0.057-1.103,0.168c-0.32,0.112-0.588,0.265-0.802,0.456s-0.376,0.418-0.484,0.676
		c-0.108,0.26-0.163,0.539-0.163,0.841c0,0.383,0.095,0.701,0.283,0.954s0.438,0.469,0.748,0.646
		c0.311,0.179,0.663,0.334,1.055,0.466c0.394,0.131,0.797,0.268,1.21,0.408c0.412,0.141,0.815,0.298,1.209,0.475
		c0.394,0.176,0.744,0.397,1.055,0.667c0.311,0.268,0.559,0.598,0.748,0.987c0.188,0.391,0.283,0.87,0.283,1.44
		c0,0.6-0.103,1.164-0.308,1.691c-0.205,0.528-0.503,0.987-0.896,1.377s-0.877,0.697-1.448,0.923
		c-0.572,0.222-1.223,0.334-1.953,0.334c-0.889,0-1.699-0.16-2.432-0.484c-0.731-0.322-1.356-0.759-1.875-1.309l0.537-0.884
		c0.051-0.069,0.113-0.128,0.188-0.177c0.073-0.048,0.155-0.072,0.245-0.072c0.134,0,0.287,0.072,0.46,0.216
		s0.389,0.303,0.647,0.475c0.259,0.173,0.571,0.332,0.939,0.476s0.816,0.216,1.349,0.216c0.441,0,0.835-0.061,1.18-0.183
		c0.346-0.121,0.639-0.292,0.878-0.514c0.239-0.22,0.423-0.484,0.552-0.791c0.127-0.307,0.191-0.649,0.191-1.026
		c0-0.415-0.094-0.756-0.282-1.022c-0.188-0.265-0.437-0.487-0.744-0.667c-0.307-0.178-0.657-0.329-1.051-0.455
		c-0.394-0.124-0.796-0.251-1.209-0.383c-0.412-0.131-0.814-0.283-1.208-0.456s-0.743-0.397-1.051-0.672
		c-0.307-0.274-0.554-0.618-0.743-1.032c-0.188-0.412-0.283-0.92-0.283-1.528c0-0.486,0.095-0.956,0.283-1.41
		c0.189-0.455,0.462-0.856,0.819-1.21c0.358-0.351,0.802-0.632,1.329-0.843c0.527-0.212,1.134-0.317,1.819-0.317
		c0.767,0,1.467,0.122,2.1,0.365c0.633,0.242,1.187,0.594,1.659,1.055L422.811,379.953z"/>
</g>
<path fill="#65C7EF" d="M485.841,160.849c0-0.96-0.781-1.741-1.741-1.741H255.231c-0.96,0-1.741,0.781-1.741,1.741v38.919
	l-22.598,9.952c-0.648,0.286-1.056,0.927-1.039,1.634c0.016,0.708,0.453,1.33,1.114,1.584l22.522,8.679v211.957
	c0,0.96,0.781,1.741,1.741,1.741H484.1c0.96,0,1.741-0.781,1.741-1.741V160.849z M482.359,431.832H256.973v-211.41
	c0-0.715-0.448-1.368-1.115-1.624l-19.701-7.592l19.775-8.708c0.632-0.279,1.041-0.904,1.041-1.594V162.59h225.387V431.832z"/>
<g>
	<path fill="#65C7EF" d="M107.817,229.663l36.765-56.484c0.523-0.804,0.294-1.885-0.51-2.409c-0.748-0.489-1.926-0.232-2.408,0.51
		l-35.307,54.244l-14.138-21.657c-0.323-0.494-0.87-0.79-1.461-0.79c-0.337,0-0.666,0.098-0.95,0.284
		c-0.803,0.524-1.029,1.605-0.505,2.41l15.598,23.894c0.323,0.494,0.868,0.79,1.459,0.79
		C106.952,230.452,107.497,230.156,107.817,229.663z"/>
	<polygon fill="#65C7EF" points="106.36,231.43 106.36,231.453 106.36,231.43 	"/>
</g>
<path fill="#65C7EF" d="M334.86,279.663c0-1.295-0.268-2.582-0.778-3.765l-2.703,4.154v35.882c0,3.324-2.704,6.028-6.028,6.028
	h-36.272c-3.323,0-6.027-2.704-6.027-6.028v-36.271c0-3.325,2.704-6.029,6.027-6.029h36.272c0.392,0,0.793,0.042,1.197,0.126
	l1.989-3.056c-1.022-0.366-2.092-0.551-3.187-0.551h-36.272c-5.244,0-9.51,4.267-9.51,9.511v36.271c0,5.244,4.266,9.511,9.51,9.511
	h36.272c5.244,0,9.51-4.267,9.51-9.511V279.663z"/>
<g>
	<path fill="#65C7EF" d="M305.618,316.038l36.765-56.484c0.523-0.804,0.295-1.885-0.509-2.409c-0.75-0.487-1.928-0.23-2.409,0.51
		l-35.306,54.244l-14.139-21.658c-0.323-0.494-0.869-0.789-1.461-0.789c-0.337,0-0.665,0.098-0.949,0.284
		c-0.388,0.253-0.654,0.644-0.75,1.1s-0.009,0.921,0.245,1.31l15.598,23.894c0.323,0.494,0.868,0.79,1.458,0.79
		C304.754,316.827,305.299,316.532,305.618,316.038z"/>
	<polygon fill="#65C7EF" points="304.161,317.807 304.161,317.829 304.161,317.807 	"/>
</g>
</svg>
