<?xml version="1.0" encoding="utf-8"?>
<!-- Generator: Adobe Illustrator 16.0.0, SVG Export Plug-In . SVG Version: 6.00 Build 0)  -->
<!DOCTYPE svg PUBLIC "-//W3C//DTD SVG 1.1//EN" "http://www.w3.org/Graphics/SVG/1.1/DTD/svg11.dtd">
<svg version="1.1" id="Calque_1" xmlns="http://www.w3.org/2000/svg" xmlns:xlink="http://www.w3.org/1999/xlink" x="0px" y="0px"
	 width="566.93px" height="595.28px" viewBox="0 0 566.93 595.28" enable-background="new 0 0 566.93 595.28" xml:space="preserve">
<rect x="212.496" y="188.502" transform="matrix(0.2805 0.9599 -0.9599 0.2805 356.4001 -96.4528)" fill="#65C7EF" width="60.081" height="2"/>
<rect x="384.679" y="113.554" transform="matrix(0.702 0.7122 -0.7122 0.702 249.1048 -218.5458)" fill="#65C7EF" width="2.001" height="149.626"/>
<rect x="303.571" y="351.76" transform="matrix(0.7467 0.6651 -0.6651 0.7467 323.425 -143.8357)" fill="#65C7EF" width="94.015" height="2"/>
<rect x="246.392" y="398.291" transform="matrix(0.1949 0.9808 -0.9808 0.1949 633.1851 27.1649)" fill="#65C7EF" width="107.306" height="1.999"/>
<rect x="189.165" y="308.294" transform="matrix(0.5819 0.8133 -0.8133 0.5819 366.4004 -7.1615)" fill="#65C7EF" width="2.001" height="88.931"/>
<rect x="126.094" y="242.69" transform="matrix(0.8851 0.4653 -0.4653 0.8851 133.2217 -52.3285)" fill="#65C7EF" width="93.026" height="2"/>
<rect x="233.613" y="255.922" fill="#65C7EF" width="82.078" height="47.283"/>
<path fill="#65C7EF" d="M274.799,212.336c-39.973,0-72.378,32.404-72.378,72.376c0,39.974,32.405,72.378,72.378,72.378
	s72.377-32.404,72.377-72.378C347.176,244.741,314.771,212.336,274.799,212.336z M288.927,326.401h-14.273h-14.275
	c-0.892,0-0.865-1.569,0-1.785c3.568-0.893,4.46-3.569,4.46-7.137v-0.893h9.815h9.812v0.893c0,3.567,0.893,6.244,4.461,7.137
	C289.792,324.832,289.818,326.401,288.927,326.401z M317.029,313.91h-84.753c-1.231,0-2.231-0.997-2.231-2.23l0.019-57.264
	c0.085-1.151,1.038-2.062,2.213-2.062h84.753c1.174,0,2.127,0.911,2.213,2.062l0.018,57.264
	C319.26,312.913,318.261,313.91,317.029,313.91z"/>
<path fill="#65C7EF" d="M114.349,233.337c-11.028,0-20-8.972-20-20s8.972-20,20-20s20,8.972,20,20S125.377,233.337,114.349,233.337z
	 M114.349,195.337c-9.925,0-18,8.075-18,18s8.075,18,18,18s18-8.075,18-18S124.273,195.337,114.349,195.337z"/>
<path fill="#65C7EF" d="M315.109,490.914c-11.028,0-20-8.972-20-20s8.972-20,20-20s20,8.972,20,20S326.138,490.914,315.109,490.914z
	 M315.109,452.914c-9.925,0-18,8.075-18,18s8.075,18,18,18s18-8.075,18-18S325.034,452.914,315.109,452.914z"/>
<circle fill="#65C7EF" cx="114.348" cy="206.466" r="4.632"/>
<path fill="#65C7EF" d="M122.843,223.421c0.164-0.672,0.262-1.37,0.262-2.093c0-4.836-3.92-8.756-8.756-8.756
	s-8.756,3.92-8.756,8.756c0,0.723,0.098,1.421,0.262,2.093H122.843z"/>
<circle fill="#65C7EF" cx="138.779" cy="382.692" r="4.632"/>
<path fill="#65C7EF" d="M147.273,399.647c0.164-0.672,0.262-1.369,0.262-2.092c0-4.836-3.92-8.757-8.756-8.757
	s-8.756,3.921-8.756,8.757c0,0.723,0.098,1.42,0.262,2.092H147.273z"/>
<path fill="#65C7EF" d="M453.958,145.05c-11.028,0-20-8.972-20-20s8.972-20,20-20s20,8.972,20,20S464.986,145.05,453.958,145.05z
	 M453.958,107.05c-9.925,0-18,8.075-18,18s8.075,18,18,18s18-8.075,18-18S463.883,107.05,453.958,107.05z"/>
<path fill="#65C7EF" d="M320.109,192.831c-11.028,0-20-8.972-20-20s8.972-20,20-20s20,8.972,20,20S331.138,192.831,320.109,192.831z
	 M320.109,154.831c-9.925,0-18,8.075-18,18s8.075,18,18,18s18-8.075,18-18S330.034,154.831,320.109,154.831z"/>
<circle fill="#65C7EF" cx="453.958" cy="118.179" r="4.632"/>
<path fill="#65C7EF" d="M462.452,135.135c0.164-0.672,0.262-1.37,0.262-2.093c0-4.836-3.92-8.756-8.756-8.756
	s-8.756,3.92-8.756,8.756c0,0.723,0.098,1.421,0.262,2.093H462.452z"/>
<g>
	<circle fill="#65C7EF" cx="231.962" cy="134.973" r="4.632"/>
	<path fill="#65C7EF" d="M240.457,151.929c0.164-0.672,0.262-1.37,0.262-2.093c0-4.836-3.92-8.756-8.756-8.756
		s-8.756,3.92-8.756,8.756c0,0.723,0.098,1.421,0.262,2.093H240.457z"/>
</g>
<g>
	<circle fill="#65C7EF" cx="423.202" cy="262.365" r="4.632"/>
	<path fill="#65C7EF" d="M431.696,279.32c0.164-0.672,0.262-1.369,0.262-2.092c0-4.836-3.92-8.757-8.756-8.757
		s-8.756,3.921-8.756,8.757c0,0.723,0.098,1.42,0.262,2.092H431.696z"/>
</g>
<g>
	<circle fill="#65C7EF" cx="319.259" cy="165.3" r="4.632"/>
	<path fill="#65C7EF" d="M327.754,182.255c0.164-0.672,0.262-1.37,0.262-2.093c0-4.836-3.92-8.756-8.756-8.756
		s-8.756,3.92-8.756,8.756c0,0.723,0.098,1.421,0.262,2.093H327.754z"/>
</g>
<circle fill="#65C7EF" cx="397.435" cy="383.457" r="4.632"/>
<path fill="#65C7EF" d="M405.93,400.412c0.164-0.672,0.262-1.37,0.262-2.093c0-4.836-3.92-8.757-8.756-8.757
	s-8.756,3.921-8.756,8.757c0,0.723,0.098,1.421,0.262,2.093H405.93z"/>
<g>
	<circle fill="#65C7EF" cx="315.109" cy="463.698" r="4.632"/>
	<path fill="#65C7EF" d="M323.604,480.653c0.164-0.672,0.262-1.37,0.262-2.093c0-4.836-3.92-8.757-8.756-8.757
		s-8.756,3.921-8.756,8.757c0,0.723,0.098,1.421,0.262,2.093H323.604z"/>
</g>
<rect x="368.287" y="241.409" transform="matrix(0.2285 0.9735 -0.9735 0.2285 556.8375 -144.0208)" fill="#65C7EF" width="2" height="75.823"/>
<rect x="302.732" y="188.094" transform="matrix(0.948 0.3183 -0.3183 0.948 84.2834 -85.4808)" fill="#65C7EF" width="2.001" height="54.184"/>
</svg>
