<?xml version="1.0" encoding="utf-8"?>
<!-- Generator: Adobe Illustrator 16.0.0, SVG Export Plug-In . SVG Version: 6.00 Build 0)  -->
<!DOCTYPE svg PUBLIC "-//W3C//DTD SVG 1.1//EN" "http://www.w3.org/Graphics/SVG/1.1/DTD/svg11.dtd">
<svg version="1.1" id="Calque_1" xmlns="http://www.w3.org/2000/svg" xmlns:xlink="http://www.w3.org/1999/xlink" x="0px" y="0px"
	 width="566.93px" height="595.28px" viewBox="0 0 566.93 595.28" enable-background="new 0 0 566.93 595.28" xml:space="preserve">
<path opacity="0.1" fill="#65C7EF" d="M20.561,413.21c-49.526,0-89.819-40.293-89.819-89.819c0-21.194,7.523-41.771,21.184-57.94
	c8.239-9.751,18.67-17.788,30.165-23.244c12.073-5.73,25.017-8.636,38.47-8.636c49.527,0,89.82,40.293,89.82,89.819
	S70.087,413.21,20.561,413.21z M20.561,258.571c-9.717,0-19.053,2.093-27.751,6.221c-8.299,3.938-15.833,9.746-21.788,16.793
	c-9.854,11.662-15.28,26.509-15.28,41.805c0,35.741,29.078,64.819,64.819,64.819s64.82-29.078,64.82-64.819
	S56.302,258.571,20.561,258.571z"/>
<path fill="#65C7EF" d="M20.465,413.034c-49.526,0-89.819-40.293-89.819-89.82c0-21.194,7.523-41.771,21.184-57.939l19.097,16.135
	c-9.854,11.662-15.281,26.509-15.281,41.805c0,35.742,29.078,64.82,64.819,64.82s64.819-29.078,64.819-64.82
	c0-35.741-29.078-64.819-64.819-64.819v-25c49.526,0,89.819,40.292,89.819,89.819C110.285,372.741,69.992,413.034,20.465,413.034z"
	/>
<g>
	<path fill="#63C6EF" d="M2.313,327.52c-1.339,0-2.652-0.233-3.939-0.698c-1.288-0.465-2.436-1.165-3.443-2.104
		c-1.012-0.938-1.819-2.101-2.426-3.486c-0.611-1.383-0.912-3.006-0.912-4.864c0-1.732,0.318-3.36,0.965-4.879
		c0.641-1.521,1.544-2.852,2.705-3.994c1.165-1.145,2.557-2.047,4.185-2.708c1.627-0.661,3.421-0.993,5.389-0.993
		c1.985,0,3.766,0.312,5.35,0.938c1.579,0.626,2.928,1.501,4.045,2.627s1.977,2.476,2.574,4.05c0.598,1.572,0.898,3.296,0.898,5.172
		c0,1.198-0.104,2.332-0.31,3.406c-0.205,1.071-0.497,2.104-0.881,3.096c-0.389,0.993-0.847,1.957-1.384,2.896
		c-0.536,0.938-1.134,1.883-1.793,2.829L4.46,341.46c-0.306,0.428-0.755,0.791-1.354,1.085c-0.602,0.294-1.282,0.442-2.051,0.442
		h-6.087l12.039-15.04c0.301-0.376,0.589-0.739,0.855-1.098c0.271-0.358,0.527-0.716,0.776-1.073
		c-0.895,0.572-1.876,1.006-2.949,1.301C4.622,327.371,3.496,327.52,2.313,327.52z M11.35,315.91c0-1.053-0.161-1.996-0.484-2.827
		c-0.318-0.831-0.776-1.534-1.366-2.104c-0.589-0.572-1.291-1.011-2.103-1.314c-0.816-0.303-1.706-0.455-2.671-0.455
		c-0.999,0-1.902,0.165-2.705,0.494c-0.808,0.332-1.488,0.793-2.051,1.381c-0.562,0.592-0.999,1.293-1.301,2.105
		c-0.305,0.814-0.458,1.702-0.458,2.669c0,2.162,0.559,3.812,1.676,4.945c1.117,1.135,2.705,1.702,4.761,1.702
		c1.073,0,2.024-0.17,2.854-0.511c0.833-0.338,1.531-0.803,2.104-1.392c0.575-0.592,1.008-1.287,1.3-2.092
		C11.202,317.706,11.35,316.84,11.35,315.91z"/>
	<path fill="#63C6EF" d="M44.459,328.377h4.879v3.833c0,0.357-0.118,0.668-0.35,0.926c-0.231,0.26-0.571,0.388-1.017,0.388h-3.513
		v9.464h-5.79v-9.464H22.315c-0.449,0-0.842-0.138-1.183-0.415c-0.336-0.276-0.554-0.621-0.641-1.031l-0.672-3.352l18.365-24.53
		h6.274V328.377z M38.669,315.697c0-0.572,0.018-1.189,0.053-1.851c0.034-0.661,0.096-1.349,0.188-2.063l-12.039,16.594h11.799
		V315.697z"/>
</g>
<path opacity="0.1" fill="#65C7EF" d="M548.224,413.21c-49.526,0-89.818-40.293-89.818-89.819c0-21.194,7.523-41.771,21.185-57.94
	c8.238-9.75,18.669-17.788,30.164-23.243c12.072-5.73,25.016-8.636,38.47-8.636c49.527,0,89.82,40.293,89.82,89.819
	S597.751,413.21,548.224,413.21z M548.224,258.571c-9.717,0-19.054,2.093-27.75,6.221c-8.299,3.938-15.833,9.746-21.788,16.793
	c-9.854,11.662-15.28,26.509-15.28,41.805c0,35.741,29.077,64.819,64.818,64.819c35.742,0,64.82-29.078,64.82-64.819
	S583.966,258.571,548.224,258.571z"/>
<path fill="#65C7EF" d="M548.129,413.034c-49.526,0-89.819-40.293-89.819-89.82h25c0,35.742,29.078,64.82,64.819,64.82
	s64.819-29.078,64.819-64.82c0-35.741-29.078-64.819-64.819-64.819v-25c49.526,0,89.819,40.292,89.819,89.819
	C637.948,372.741,597.655,413.034,548.129,413.034z"/>
<g>
	<path fill="#63C6EF" d="M-46.237,192.961v4.581h-2.421v-13.014h4.239c0.87,0,1.623,0.102,2.259,0.306
		c0.636,0.204,1.161,0.489,1.575,0.855c0.414,0.366,0.72,0.804,0.918,1.314c0.198,0.51,0.297,1.068,0.297,1.674
		c0,0.63-0.105,1.208-0.315,1.733c-0.21,0.525-0.525,0.977-0.945,1.354s-0.945,0.672-1.575,0.882
		c-0.63,0.21-1.368,0.315-2.214,0.315H-46.237z M-46.237,191.071h1.818c0.444,0,0.831-0.055,1.161-0.167
		c0.33-0.111,0.603-0.27,0.819-0.477c0.216-0.207,0.378-0.459,0.486-0.756s0.162-0.628,0.162-0.995c0-0.348-0.054-0.663-0.162-0.945
		c-0.108-0.282-0.27-0.522-0.486-0.72c-0.216-0.198-0.489-0.35-0.819-0.455s-0.717-0.158-1.161-0.158h-1.818V191.071z"/>
	<path fill="#63C6EF" d="M-29.281,184.528v1.926h-5.769v3.609h4.545v1.863h-4.545v3.681h5.769v1.935h-8.208v-13.014H-29.281z"/>
	<path fill="#63C6EF" d="M-24.683,192.457v5.085h-2.421v-13.014h3.969c0.888,0,1.648,0.092,2.282,0.275
		c0.633,0.183,1.152,0.439,1.557,0.769c0.405,0.33,0.702,0.725,0.891,1.184c0.189,0.459,0.284,0.965,0.284,1.517
		c0,0.438-0.064,0.852-0.193,1.242c-0.129,0.39-0.315,0.744-0.558,1.062c-0.243,0.318-0.543,0.597-0.9,0.837
		c-0.357,0.24-0.764,0.432-1.22,0.576c0.306,0.174,0.57,0.423,0.792,0.747l3.258,4.806h-2.178c-0.21,0-0.389-0.042-0.536-0.126
		s-0.271-0.204-0.373-0.36l-2.736-4.167c-0.102-0.156-0.214-0.267-0.337-0.333s-0.305-0.099-0.544-0.099H-24.683z M-24.683,190.72
		h1.512c0.456,0,0.854-0.057,1.192-0.171c0.339-0.114,0.618-0.271,0.837-0.472c0.219-0.201,0.383-0.439,0.491-0.716
		c0.108-0.276,0.162-0.579,0.162-0.909c0-0.66-0.217-1.167-0.652-1.521s-1.1-0.531-1.994-0.531h-1.548V190.72z"/>
	<path fill="#63C6EF" d="M-7.187,184.528v1.926h-5.769v3.852h4.869v1.935h-4.869v5.301h-2.439v-13.014H-7.187z"/>
	<path fill="#63C6EF" d="M7.195,191.035c0,0.954-0.159,1.837-0.477,2.65c-0.318,0.813-0.765,1.517-1.341,2.11
		c-0.576,0.594-1.269,1.058-2.079,1.391s-1.707,0.5-2.691,0.5s-1.882-0.167-2.695-0.5c-0.813-0.333-1.509-0.796-2.088-1.391
		c-0.579-0.594-1.027-1.297-1.345-2.11c-0.318-0.813-0.477-1.697-0.477-2.65c0-0.954,0.159-1.837,0.477-2.651
		c0.318-0.812,0.766-1.516,1.345-2.11c0.579-0.594,1.275-1.058,2.088-1.391c0.813-0.333,1.711-0.5,2.695-0.5
		s1.881,0.168,2.691,0.504s1.503,0.799,2.079,1.39c0.576,0.591,1.023,1.293,1.341,2.106C7.037,189.198,7.195,190.081,7.195,191.035z
		 M4.711,191.035c0-0.714-0.095-1.354-0.284-1.922c-0.189-0.567-0.46-1.048-0.814-1.444s-0.784-0.699-1.292-0.909
		c-0.507-0.21-1.079-0.315-1.714-0.315c-0.636,0-1.209,0.105-1.719,0.315c-0.51,0.21-0.944,0.513-1.301,0.909
		s-0.631,0.877-0.823,1.444c-0.192,0.567-0.288,1.208-0.288,1.922c0,0.714,0.096,1.354,0.288,1.921
		c0.192,0.567,0.466,1.047,0.823,1.44s0.791,0.694,1.301,0.904c0.51,0.21,1.083,0.315,1.719,0.315c0.636,0,1.208-0.105,1.714-0.315
		c0.507-0.21,0.938-0.511,1.292-0.904s0.625-0.873,0.814-1.44S4.711,191.749,4.711,191.035z"/>
	<path fill="#63C6EF" d="M11.605,192.457v5.085H9.185v-13.014h3.969c0.888,0,1.648,0.092,2.282,0.275
		c0.633,0.183,1.152,0.439,1.557,0.769c0.405,0.33,0.702,0.725,0.891,1.184c0.189,0.459,0.284,0.965,0.284,1.517
		c0,0.438-0.064,0.852-0.193,1.242c-0.129,0.39-0.315,0.744-0.558,1.062c-0.243,0.318-0.543,0.597-0.9,0.837
		c-0.357,0.24-0.764,0.432-1.22,0.576c0.306,0.174,0.57,0.423,0.792,0.747l3.258,4.806h-2.178c-0.21,0-0.389-0.042-0.536-0.126
		s-0.271-0.204-0.373-0.36l-2.736-4.167c-0.102-0.156-0.214-0.267-0.337-0.333s-0.305-0.099-0.544-0.099H11.605z M11.605,190.72
		h1.512c0.456,0,0.854-0.057,1.192-0.171c0.339-0.114,0.618-0.271,0.837-0.472c0.219-0.201,0.383-0.439,0.491-0.716
		c0.108-0.276,0.162-0.579,0.162-0.909c0-0.66-0.217-1.167-0.652-1.521s-1.1-0.531-1.994-0.531h-1.548V190.72z"/>
	<path fill="#63C6EF" d="M27.711,192.741c0.087,0.207,0.172,0.416,0.257,0.625c0.084-0.216,0.171-0.429,0.261-0.639
		s0.186-0.411,0.288-0.603l3.852-7.209c0.048-0.09,0.097-0.162,0.148-0.216c0.051-0.054,0.108-0.093,0.171-0.117
		s0.134-0.039,0.211-0.045c0.078-0.006,0.171-0.009,0.279-0.009h1.827v13.014h-2.133v-8.406c0-0.156,0.004-0.327,0.014-0.513
		c0.009-0.186,0.022-0.375,0.041-0.567l-3.933,7.38c-0.09,0.168-0.207,0.298-0.351,0.392c-0.144,0.093-0.312,0.139-0.504,0.139
		h-0.333c-0.192,0-0.36-0.046-0.504-0.139c-0.144-0.093-0.261-0.224-0.351-0.392l-3.987-7.407c0.024,0.198,0.041,0.392,0.05,0.581
		c0.009,0.189,0.013,0.365,0.013,0.527v8.406h-2.133v-13.014h1.827c0.108,0,0.201,0.003,0.279,0.009s0.148,0.021,0.211,0.045
		s0.122,0.063,0.176,0.117c0.054,0.054,0.105,0.126,0.153,0.216l3.888,7.227C27.53,192.334,27.624,192.534,27.711,192.741z"/>
	<path fill="#63C6EF" d="M49.072,197.542h-1.871c-0.211,0-0.383-0.052-0.518-0.158c-0.135-0.104-0.232-0.235-0.293-0.391
		l-0.972-2.655h-5.391l-0.972,2.655c-0.048,0.138-0.143,0.264-0.283,0.378c-0.141,0.114-0.314,0.171-0.518,0.171h-1.881
		l5.112-13.014h2.475L49.072,197.542z M40.648,192.628h4.149l-1.584-4.329c-0.072-0.192-0.152-0.418-0.239-0.679
		c-0.087-0.261-0.172-0.544-0.256-0.851c-0.084,0.306-0.167,0.591-0.248,0.855s-0.161,0.495-0.238,0.693L40.648,192.628z"/>
	<path fill="#63C6EF" d="M51.953,184.542c0.071,0.009,0.136,0.027,0.193,0.054c0.057,0.027,0.112,0.066,0.166,0.117
		c0.055,0.051,0.114,0.119,0.18,0.203l6.832,8.703c-0.024-0.21-0.041-0.416-0.051-0.617c-0.008-0.201-0.013-0.388-0.013-0.562
		v-7.911h2.133v13.014h-1.251c-0.191,0-0.352-0.03-0.477-0.09c-0.127-0.06-0.25-0.168-0.369-0.324l-6.805-8.667
		c0.019,0.192,0.031,0.382,0.041,0.572c0.009,0.189,0.014,0.361,0.014,0.517v7.992h-2.133v-13.014h1.269
		C51.791,184.528,51.88,184.533,51.953,184.542z"/>
	<path fill="#63C6EF" d="M72.966,194.473c0.133,0,0.246,0.051,0.343,0.153l0.954,1.035c-0.528,0.654-1.178,1.155-1.949,1.503
		c-0.771,0.348-1.695,0.522-2.775,0.522c-0.967,0-1.835-0.165-2.605-0.495c-0.771-0.33-1.43-0.789-1.977-1.377
		c-0.545-0.588-0.964-1.29-1.255-2.106s-0.437-1.707-0.437-2.673c0-0.978,0.162-1.874,0.486-2.687s0.779-1.514,1.367-2.102
		s1.292-1.045,2.111-1.373c0.818-0.327,1.723-0.491,2.713-0.491c0.967,0,1.811,0.155,2.533,0.464
		c0.724,0.309,1.343,0.718,1.859,1.229l-0.811,1.125c-0.048,0.072-0.109,0.135-0.185,0.189c-0.075,0.054-0.179,0.081-0.31,0.081
		c-0.139,0-0.279-0.054-0.424-0.162s-0.327-0.225-0.549-0.351c-0.223-0.126-0.502-0.243-0.842-0.351
		c-0.339-0.108-0.77-0.162-1.291-0.162c-0.612,0-1.175,0.107-1.688,0.32c-0.514,0.213-0.954,0.518-1.323,0.914
		s-0.657,0.877-0.864,1.444s-0.311,1.205-0.311,1.913c0,0.732,0.104,1.383,0.311,1.953c0.207,0.57,0.488,1.05,0.842,1.44
		c0.354,0.39,0.771,0.688,1.251,0.896c0.479,0.207,0.996,0.31,1.548,0.31c0.33,0,0.629-0.018,0.896-0.054s0.513-0.093,0.738-0.171
		c0.225-0.078,0.438-0.179,0.639-0.302s0.401-0.274,0.599-0.455c0.061-0.054,0.123-0.097,0.189-0.13
		C72.817,194.49,72.889,194.473,72.966,194.473z"/>
	<path fill="#63C6EF" d="M84.298,184.528v1.926h-5.77v3.609h4.545v1.863h-4.545v3.681h5.77v1.935h-8.209v-13.014H84.298z"/>
</g>
<path opacity="0.1" fill="#65C7EF" d="M279.904,413.21c-49.526,0-89.819-40.293-89.819-89.819c0-21.194,7.523-41.771,21.184-57.94
	c8.239-9.751,18.67-17.788,30.165-23.244c12.073-5.73,25.017-8.636,38.47-8.636c49.527,0,89.82,40.293,89.82,89.819
	S329.431,413.21,279.904,413.21z M279.904,258.571c-9.717,0-19.053,2.093-27.751,6.221c-8.299,3.938-15.833,9.746-21.788,16.793
	c-9.854,11.662-15.28,26.509-15.28,41.805c0,35.741,29.078,64.819,64.819,64.819s64.82-29.078,64.82-64.819
	S315.646,258.571,279.904,258.571z"/>
<path fill="#65C7EF" d="M279.809,413.034c-35.59,0-67.865-21.048-82.224-53.622l22.876-10.084
	c10.365,23.513,33.66,38.706,59.348,38.706c35.741,0,64.819-29.078,64.819-64.82c0-35.741-29.078-64.819-64.819-64.819v-25
	c49.526,0,89.819,40.292,89.819,89.819C369.628,372.741,329.335,413.034,279.809,413.034z"/>
<g>
	<path fill="#63C6EF" d="M276.63,303.889v2.86c0,0.856-0.094,1.548-0.281,2.074c-0.187,0.525-0.37,0.967-0.549,1.323l-14.627,30.165
		c-0.304,0.625-0.731,1.156-1.284,1.592c-0.553,0.438-1.301,0.656-2.246,0.656h-4.787l14.976-29.553
		c0.625-1.213,1.32-2.254,2.086-3.128h-18.507c-0.41,0-0.766-0.151-1.069-0.455c-0.305-0.302-0.455-0.659-0.455-1.069v-4.466H276.63
		z"/>
	<path fill="#63C6EF" d="M295.055,303.46c1.783,0,3.393,0.255,4.827,0.763c1.436,0.509,2.661,1.212,3.679,2.114
		c1.016,0.898,1.795,1.954,2.339,3.167s0.815,2.521,0.815,3.932c0,1.23-0.139,2.314-0.414,3.248
		c-0.277,0.938-0.678,1.753-1.204,2.448s-1.167,1.284-1.926,1.765c-0.757,0.482-1.618,0.883-2.58,1.203
		c2.317,0.732,4.047,1.846,5.188,3.343c1.142,1.499,1.712,3.38,1.712,5.645c0,1.925-0.355,3.627-1.069,5.105
		c-0.713,1.482-1.676,2.726-2.888,3.732c-1.213,1.007-2.617,1.77-4.213,2.287c-1.596,0.516-3.285,0.774-5.067,0.774
		c-1.943,0-3.636-0.224-5.081-0.668c-1.445-0.446-2.701-1.105-3.771-1.978c-1.068-0.874-1.979-1.944-2.728-3.211
		c-0.749-1.265-1.391-2.729-1.925-4.386l2.915-1.203c0.5-0.214,1.008-0.322,1.524-0.322c0.464,0,0.878,0.1,1.243,0.295
		s0.646,0.481,0.844,0.855c0.32,0.625,0.672,1.239,1.056,1.845c0.384,0.607,0.843,1.146,1.377,1.62
		c0.534,0.473,1.164,0.854,1.886,1.148s1.582,0.441,2.58,0.441c1.123,0,2.104-0.183,2.942-0.55c0.838-0.363,1.538-0.84,2.099-1.43
		c0.562-0.588,0.98-1.242,1.258-1.964c0.276-0.723,0.414-1.449,0.414-2.181c0-0.926-0.098-1.77-0.294-2.527
		c-0.196-0.756-0.606-1.404-1.229-1.938c-0.625-0.536-1.521-0.954-2.688-1.259c-1.168-0.303-2.732-0.454-4.692-0.454v-4.733
		c1.621,0,2.968-0.144,4.037-0.429c1.07-0.285,1.922-0.682,2.555-1.189c0.633-0.509,1.074-1.116,1.323-1.831
		c0.249-0.714,0.374-1.498,0.374-2.354c0-1.837-0.498-3.224-1.498-4.158c-0.998-0.937-2.361-1.405-4.091-1.405
		c-1.569,0-2.87,0.415-3.904,1.242c-1.034,0.829-1.757,1.893-2.167,3.192c-0.213,0.677-0.508,1.163-0.883,1.457
		c-0.373,0.292-0.863,0.438-1.471,0.438c-0.285,0-0.588-0.024-0.909-0.078l-3.477-0.605c0.268-1.854,0.785-3.48,1.551-4.882
		c0.766-1.4,1.725-2.568,2.875-3.505c1.149-0.937,2.469-1.642,3.958-2.113C291.743,303.697,293.344,303.46,295.055,303.46z"/>
</g>
<g>
	<path fill="#63C6EF" d="M242.042,194.116c0.121,0,0.226,0.047,0.313,0.141l0.875,0.95c-0.485,0.6-1.081,1.06-1.788,1.379
		c-0.708,0.319-1.557,0.479-2.547,0.479c-0.887,0-1.684-0.151-2.392-0.454c-0.707-0.303-1.312-0.724-1.812-1.264
		c-0.5-0.54-0.884-1.183-1.152-1.932c-0.267-0.749-0.4-1.566-0.4-2.453c0-0.897,0.148-1.719,0.446-2.465
		c0.298-0.747,0.716-1.389,1.255-1.929c0.54-0.539,1.185-0.958,1.937-1.259c0.751-0.3,1.581-0.45,2.489-0.45
		c0.887,0,1.662,0.142,2.325,0.425c0.663,0.283,1.231,0.66,1.705,1.127l-0.743,1.033c-0.044,0.066-0.1,0.124-0.169,0.173
		c-0.069,0.05-0.164,0.075-0.285,0.075c-0.126,0-0.256-0.05-0.388-0.148c-0.131-0.099-0.3-0.207-0.503-0.322
		c-0.204-0.116-0.461-0.223-0.772-0.322c-0.312-0.099-0.707-0.149-1.186-0.149c-0.562,0-1.078,0.098-1.548,0.293
		c-0.471,0.196-0.875,0.475-1.214,0.838c-0.339,0.363-0.603,0.805-0.793,1.325s-0.285,1.105-0.285,1.755
		c0,0.672,0.095,1.269,0.285,1.792s0.447,0.963,0.772,1.321c0.325,0.358,0.707,0.632,1.147,0.821c0.44,0.19,0.914,0.285,1.421,0.285
		c0.302,0,0.576-0.017,0.821-0.049c0.245-0.034,0.471-0.085,0.677-0.157c0.207-0.072,0.401-0.164,0.586-0.277
		c0.184-0.113,0.368-0.252,0.549-0.417c0.055-0.049,0.113-0.089,0.173-0.12C241.904,194.131,241.97,194.116,242.042,194.116z"/>
	<path fill="#63C6EF" d="M256.361,190.961c0,0.875-0.146,1.686-0.438,2.432c-0.292,0.746-0.702,1.391-1.23,1.936
		c-0.529,0.545-1.164,0.971-1.908,1.276c-0.743,0.305-1.566,0.458-2.469,0.458c-0.903,0-1.727-0.153-2.474-0.458
		c-0.746-0.306-1.384-0.731-1.916-1.276s-0.943-1.19-1.235-1.936c-0.292-0.746-0.438-1.557-0.438-2.432
		c0-0.875,0.146-1.686,0.438-2.432c0.292-0.746,0.704-1.391,1.235-1.936s1.17-0.971,1.916-1.276c0.747-0.306,1.57-0.458,2.474-0.458
		c0.903,0,1.726,0.154,2.469,0.462c0.744,0.308,1.379,0.734,1.908,1.276c0.528,0.542,0.938,1.187,1.23,1.932
		C256.215,189.275,256.361,190.086,256.361,190.961z M254.082,190.961c0-0.655-0.087-1.243-0.261-1.763
		c-0.173-0.52-0.422-0.962-0.747-1.325c-0.325-0.363-0.72-0.642-1.185-0.834c-0.465-0.193-0.99-0.289-1.573-0.289
		c-0.583,0-1.109,0.096-1.578,0.289c-0.468,0.192-0.866,0.471-1.193,0.834c-0.327,0.363-0.579,0.806-0.755,1.325
		c-0.176,0.52-0.264,1.108-0.264,1.763c0,0.655,0.088,1.243,0.264,1.764c0.176,0.52,0.428,0.96,0.755,1.32
		c0.328,0.361,0.726,0.637,1.193,0.831c0.468,0.192,0.994,0.289,1.578,0.289c0.583,0,1.108-0.096,1.573-0.289
		c0.465-0.193,0.86-0.47,1.185-0.831c0.325-0.36,0.574-0.801,0.747-1.32C253.995,192.205,254.082,191.617,254.082,190.961z"/>
	<path fill="#63C6EF" d="M259.523,185.003c0.066,0.009,0.125,0.025,0.177,0.05c0.052,0.024,0.103,0.06,0.153,0.107
		c0.049,0.047,0.104,0.109,0.165,0.186l6.268,7.985c-0.022-0.192-0.038-0.381-0.046-0.565c-0.008-0.185-0.012-0.356-0.012-0.516
		v-7.258h1.957v11.94h-1.147c-0.177,0-0.322-0.027-0.438-0.083c-0.116-0.055-0.229-0.154-0.339-0.297l-6.243-7.952
		c0.017,0.176,0.029,0.351,0.038,0.524c0.008,0.174,0.012,0.332,0.012,0.475v7.333h-1.957v-11.94h1.164
		C259.375,184.991,259.458,184.995,259.523,185.003z"/>
	<path fill="#63C6EF" d="M279.012,184.991v1.825h-3.592v10.116h-2.222v-10.116h-3.608v-1.825H279.012z"/>
	<path fill="#63C6EF" d="M282.719,192.266v4.666h-2.222v-11.94h3.641c0.815,0,1.514,0.084,2.094,0.251
		c0.581,0.168,1.058,0.404,1.43,0.707c0.371,0.302,0.643,0.665,0.816,1.085s0.261,0.885,0.261,1.392c0,0.402-0.06,0.782-0.178,1.139
		c-0.118,0.358-0.289,0.683-0.512,0.975c-0.224,0.292-0.499,0.548-0.825,0.768c-0.328,0.22-0.701,0.396-1.119,0.528
		c0.28,0.16,0.522,0.389,0.727,0.686l2.988,4.41h-1.998c-0.192,0-0.356-0.038-0.491-0.115s-0.249-0.187-0.343-0.33l-2.51-3.824
		c-0.094-0.143-0.197-0.244-0.311-0.305c-0.112-0.061-0.279-0.091-0.499-0.091H282.719z M282.719,190.672h1.387
		c0.419,0,0.783-0.052,1.095-0.157c0.311-0.104,0.566-0.249,0.768-0.434c0.201-0.184,0.351-0.404,0.449-0.656
		c0.1-0.253,0.149-0.531,0.149-0.834c0-0.605-0.2-1.071-0.599-1.396c-0.399-0.325-1.01-0.487-1.83-0.487h-1.419V190.672z"/>
	<path fill="#63C6EF" d="M302.299,190.961c0,0.875-0.146,1.686-0.438,2.432c-0.293,0.746-0.703,1.391-1.23,1.936
		c-0.529,0.545-1.164,0.971-1.908,1.276c-0.742,0.305-1.566,0.458-2.469,0.458c-0.903,0-1.727-0.153-2.474-0.458
		c-0.746-0.306-1.384-0.731-1.915-1.276s-0.943-1.19-1.235-1.936c-0.292-0.746-0.437-1.557-0.437-2.432
		c0-0.875,0.145-1.686,0.437-2.432c0.292-0.746,0.704-1.391,1.235-1.936s1.169-0.971,1.915-1.276
		c0.747-0.306,1.57-0.458,2.474-0.458c0.902,0,1.727,0.154,2.469,0.462c0.744,0.308,1.379,0.734,1.908,1.276
		c0.527,0.542,0.938,1.187,1.23,1.932C302.152,189.275,302.299,190.086,302.299,190.961z M300.02,190.961
		c0-0.655-0.086-1.243-0.26-1.763c-0.174-0.52-0.423-0.962-0.748-1.325c-0.324-0.363-0.721-0.642-1.186-0.834
		c-0.465-0.193-0.989-0.289-1.572-0.289c-0.584,0-1.109,0.096-1.578,0.289c-0.467,0.192-0.865,0.471-1.192,0.834
		c-0.328,0.363-0.579,0.806-0.756,1.325c-0.177,0.52-0.265,1.108-0.265,1.763c0,0.655,0.088,1.243,0.265,1.764
		c0.177,0.52,0.428,0.96,0.756,1.32c0.327,0.361,0.726,0.637,1.192,0.831c0.469,0.192,0.994,0.289,1.578,0.289
		c0.583,0,1.107-0.096,1.572-0.289c0.465-0.193,0.861-0.47,1.186-0.831c0.325-0.36,0.574-0.801,0.748-1.32
		C299.934,192.205,300.02,191.617,300.02,190.961z M299.284,184.14h-1.544c-0.083,0-0.174-0.011-0.272-0.033
		s-0.179-0.055-0.239-0.099l-0.834-0.554c-0.022-0.011-0.043-0.024-0.062-0.041c-0.02-0.016-0.04-0.033-0.062-0.049
		c-0.011,0.011-0.028,0.025-0.05,0.041c-0.022,0.017-0.047,0.033-0.074,0.049l-0.834,0.554c-0.061,0.044-0.141,0.077-0.239,0.099
		c-0.1,0.022-0.19,0.033-0.272,0.033h-1.545l1.998-1.808h2.033L299.284,184.14z"/>
	<path fill="#63C6EF" d="M306.271,195.098h4.781v1.833h-7.002v-11.94h2.221V195.098z"/>
	<path fill="#63C6EF" d="M320.119,184.991v1.767h-5.293v3.311h4.17v1.71h-4.17v3.377h5.293v1.775h-7.531v-11.94H320.119z"/>
</g>
<g>
	<path fill="#65C7EF" d="M532.906,342.56c-1.936,0-3.701-0.259-5.3-0.778s-2.968-1.251-4.108-2.201
		c-1.139-0.952-2.023-2.099-2.655-3.447c-0.632-1.35-0.944-2.851-0.944-4.51c0-2.212,0.542-4.082,1.631-5.61
		c1.09-1.528,2.782-2.666,5.08-3.409c-1.83-0.76-3.199-1.839-4.108-3.239c-0.906-1.4-1.359-3.082-1.359-5.054
		c0-1.415,0.29-2.739,0.868-3.966c0.578-1.228,1.385-2.293,2.422-3.201c1.037-0.906,2.277-1.615,3.719-2.123
		c1.445-0.511,3.028-0.765,4.756-0.765c1.729,0,3.314,0.254,4.756,0.765c1.443,0.508,2.684,1.217,3.72,2.123
		c1.036,0.908,1.845,1.974,2.423,3.201c0.578,1.227,0.869,2.551,0.869,3.966c0,1.972-0.457,3.653-1.373,5.054
		s-2.28,2.479-4.096,3.239c2.297,0.743,3.992,1.881,5.078,3.409c1.09,1.528,1.635,3.398,1.635,5.61c0,1.659-0.316,3.16-0.947,4.51
		c-0.631,1.349-1.516,2.495-2.656,3.447c-1.141,0.95-2.51,1.682-4.107,2.201S534.842,342.56,532.906,342.56z M532.906,337.558
		c1.054,0,1.979-0.151,2.775-0.453c0.793-0.304,1.463-0.72,2.008-1.258c0.545-0.534,0.954-1.175,1.231-1.917
		c0.274-0.741,0.415-1.547,0.415-2.409c0-2.057-0.572-3.611-1.713-4.667c-1.139-1.054-2.711-1.581-4.717-1.581
		c-2.002,0-3.576,0.527-4.717,1.581c-1.14,1.056-1.709,2.61-1.709,4.667c0,0.862,0.137,1.668,0.415,2.409
		c0.274,0.742,0.687,1.383,1.229,1.917c0.545,0.538,1.215,0.954,2.01,1.258C530.928,337.406,531.854,337.558,532.906,337.558z
		 M532.906,320.246c1.037,0,1.91-0.163,2.618-0.493c0.708-0.327,1.276-0.764,1.712-1.31c0.432-0.543,0.737-1.167,0.918-1.865
		c0.184-0.7,0.272-1.42,0.272-2.164c0-0.707-0.111-1.382-0.336-2.021c-0.226-0.64-0.562-1.205-1.012-1.7
		c-0.448-0.491-1.02-0.883-1.709-1.178c-0.692-0.294-1.514-0.44-2.464-0.44c-0.949,0-1.771,0.146-2.461,0.44
		c-0.691,0.295-1.266,0.687-1.723,1.178c-0.459,0.495-0.797,1.061-1.014,1.7c-0.213,0.639-0.322,1.313-0.322,2.021
		c0,0.744,0.092,1.464,0.273,2.164c0.18,0.698,0.486,1.322,0.92,1.865c0.432,0.546,1,0.982,1.709,1.31
		C530.998,320.083,531.871,320.246,532.906,320.246z"/>
	<path fill="#65C7EF" d="M561.675,327.19c-1.296,0-2.567-0.224-3.812-0.672c-1.243-0.45-2.354-1.128-3.33-2.034
		c-0.977-0.909-1.758-2.032-2.346-3.37c-0.586-1.34-0.88-2.907-0.88-4.704c0-1.676,0.311-3.248,0.933-4.718
		c0.623-1.469,1.494-2.755,2.617-3.861c1.124-1.104,2.471-1.977,4.043-2.619c1.571-0.638,3.311-0.956,5.209-0.956
		c1.918,0,3.642,0.301,5.169,0.906c1.531,0.605,2.835,1.452,3.916,2.541c1.079,1.087,1.909,2.391,2.486,3.911
		c0.58,1.521,0.869,3.189,0.869,5.002c0,1.16-0.099,2.257-0.297,3.293c-0.2,1.036-0.483,2.034-0.855,2.993
		c-0.371,0.958-0.817,1.893-1.336,2.8c-0.518,0.906-1.097,1.815-1.736,2.731l-8.577,12.234c-0.294,0.414-0.73,0.764-1.31,1.05
		c-0.577,0.284-1.241,0.427-1.983,0.427h-5.881l11.635-14.539c0.293-0.361,0.572-0.716,0.829-1.063
		c0.259-0.344,0.511-0.688,0.751-1.036c-0.863,0.555-1.814,0.972-2.85,1.259C563.902,327.048,562.814,327.19,561.675,327.19z
		 M570.407,315.969c0-1.019-0.155-1.932-0.468-2.734c-0.311-0.802-0.749-1.48-1.319-2.034c-0.57-0.552-1.25-0.977-2.035-1.271
		c-0.786-0.294-1.646-0.441-2.579-0.441c-0.967,0-1.84,0.161-2.618,0.48c-0.775,0.321-1.437,0.767-1.981,1.335
		c-0.545,0.571-0.964,1.248-1.258,2.035c-0.294,0.786-0.438,1.646-0.438,2.579c0,2.09,0.536,3.686,1.62,4.782
		c1.077,1.096,2.612,1.644,4.599,1.644c1.036,0,1.956-0.163,2.76-0.492c0.804-0.327,1.481-0.776,2.034-1.347
		c0.552-0.569,0.971-1.245,1.258-2.023C570.266,317.706,570.407,316.867,570.407,315.969z"/>
</g>
<g>
	<path fill="#63C6EF" d="M502.753,184.51h1.844c0.198,0,0.36,0.047,0.483,0.144c0.125,0.097,0.219,0.221,0.281,0.374l2.889,7.494
		c0.096,0.244,0.188,0.511,0.277,0.803c0.088,0.292,0.171,0.599,0.25,0.922c0.131-0.652,0.292-1.226,0.484-1.725l2.88-7.494
		c0.051-0.13,0.142-0.249,0.272-0.356c0.13-0.108,0.29-0.162,0.484-0.162h1.843l-4.962,12.286h-2.063L502.753,184.51z"/>
	<path fill="#63C6EF" d="M518.6,196.795h-2.294V184.51h2.294V196.795z"/>
	<path fill="#63C6EF" d="M527.946,186.744c-0.062,0.125-0.137,0.213-0.219,0.264s-0.178,0.077-0.293,0.077
		c-0.112,0-0.239-0.044-0.381-0.132c-0.143-0.088-0.309-0.186-0.501-0.293c-0.194-0.107-0.419-0.206-0.677-0.293
		c-0.257-0.087-0.562-0.131-0.912-0.131c-0.317,0-0.594,0.038-0.83,0.115c-0.234,0.076-0.433,0.183-0.594,0.319
		c-0.161,0.135-0.282,0.299-0.361,0.489c-0.079,0.189-0.119,0.397-0.119,0.624c0,0.289,0.081,0.53,0.242,0.722
		c0.162,0.193,0.375,0.356,0.643,0.493c0.266,0.135,0.568,0.257,0.908,0.365c0.339,0.107,0.688,0.223,1.041,0.344
		c0.354,0.122,0.702,0.264,1.041,0.425c0.339,0.162,0.643,0.365,0.909,0.611c0.266,0.247,0.48,0.548,0.641,0.905
		c0.162,0.357,0.243,0.791,0.243,1.301c0,0.555-0.095,1.074-0.285,1.559c-0.19,0.484-0.468,0.906-0.832,1.266
		c-0.365,0.36-0.812,0.644-1.339,0.85c-0.526,0.207-1.13,0.31-1.81,0.31c-0.391,0-0.776-0.039-1.155-0.115s-0.744-0.186-1.092-0.327
		c-0.348-0.142-0.674-0.312-0.978-0.511c-0.304-0.198-0.573-0.418-0.812-0.662l0.664-1.096c0.062-0.079,0.136-0.146,0.224-0.2
		c0.089-0.053,0.187-0.08,0.294-0.08c0.142,0,0.294,0.058,0.458,0.174c0.164,0.116,0.357,0.245,0.583,0.387
		c0.223,0.142,0.486,0.271,0.789,0.387c0.305,0.115,0.668,0.174,1.092,0.174c0.651,0,1.156-0.154,1.513-0.463
		c0.357-0.31,0.535-0.752,0.535-1.33c0-0.322-0.081-0.586-0.242-0.79c-0.161-0.204-0.375-0.376-0.641-0.515
		c-0.268-0.138-0.569-0.256-0.91-0.352c-0.339-0.097-0.687-0.201-1.036-0.314c-0.352-0.113-0.696-0.25-1.036-0.408
		c-0.34-0.159-0.644-0.365-0.909-0.621c-0.266-0.255-0.48-0.574-0.643-0.956c-0.16-0.383-0.241-0.854-0.241-1.415
		c0-0.447,0.09-0.883,0.268-1.308s0.439-0.801,0.781-1.13c0.344-0.329,0.764-0.592,1.263-0.79c0.497-0.199,1.066-0.298,1.707-0.298
		c0.725,0,1.394,0.113,2.005,0.34c0.612,0.227,1.133,0.544,1.564,0.952L527.946,186.744z"/>
	<path fill="#63C6EF" d="M533.053,196.795h-2.294V184.51h2.294V196.795z"/>
	<path fill="#63C6EF" d="M535.814,196.795V184.51h4.239c0.803,0,1.49,0.076,2.059,0.229c0.57,0.153,1.039,0.371,1.403,0.654
		c0.365,0.283,0.634,0.625,0.803,1.028c0.17,0.402,0.255,0.855,0.255,1.359c0,0.289-0.043,0.564-0.127,0.829
		c-0.086,0.264-0.217,0.509-0.395,0.739c-0.18,0.229-0.405,0.438-0.681,0.625c-0.274,0.187-0.603,0.345-0.981,0.476
		c1.688,0.38,2.533,1.292,2.533,2.736c0,0.521-0.101,1.002-0.298,1.444c-0.198,0.442-0.487,0.823-0.867,1.143
		c-0.38,0.321-0.848,0.571-1.402,0.752c-0.554,0.181-1.188,0.271-1.903,0.271H535.814z M538.1,189.829h1.826
		c0.777,0,1.365-0.142,1.768-0.425c0.402-0.284,0.604-0.734,0.604-1.352c0-0.64-0.183-1.096-0.546-1.369
		c-0.362-0.271-0.928-0.408-1.698-0.408H538.1V189.829z M538.1,191.408v3.604h2.319c0.425,0,0.779-0.051,1.066-0.153
		c0.286-0.102,0.515-0.238,0.688-0.408c0.173-0.169,0.297-0.368,0.374-0.594c0.077-0.227,0.115-0.467,0.115-0.722
		c0-0.266-0.042-0.506-0.129-0.717c-0.084-0.213-0.217-0.395-0.398-0.545s-0.413-0.265-0.695-0.343
		c-0.284-0.08-0.628-0.12-1.029-0.12H538.1z"/>
	<path fill="#63C6EF" d="M549.46,196.795h-2.296V184.51h2.296V196.795z"/>
	<path fill="#63C6EF" d="M554.506,194.91h4.92v1.886h-7.205V184.51h2.285V194.91z"/>
	<path fill="#63C6EF" d="M563.581,196.795h-2.294V184.51h2.294V196.795z"/>
	<path fill="#63C6EF" d="M575,184.51v1.877h-3.696v10.408h-2.284v-10.408h-3.714v-1.877H575z"/>
	<path fill="#63C6EF" d="M584.202,184.51v1.818h-5.445v3.407h4.29v1.759h-4.29v3.476h5.445v1.826h-7.749V184.51H584.202z
		 M583.718,181.578l-2.515,1.835c-0.062,0.046-0.121,0.083-0.176,0.11c-0.052,0.029-0.106,0.052-0.16,0.068
		c-0.054,0.018-0.11,0.028-0.17,0.034c-0.059,0.005-0.129,0.008-0.209,0.008h-1.648l1.666-1.716c0.068-0.068,0.133-0.125,0.191-0.17
		c0.06-0.045,0.12-0.08,0.184-0.106c0.061-0.025,0.132-0.042,0.212-0.05c0.079-0.009,0.174-0.013,0.288-0.013H583.718z"/>
</g>
</svg>
