<?xml version="1.0" encoding="utf-8"?>
<!-- Generator: Adobe Illustrator 16.0.0, SVG Export Plug-In . SVG Version: 6.00 Build 0)  -->
<!DOCTYPE svg PUBLIC "-//W3C//DTD SVG 1.1//EN" "http://www.w3.org/Graphics/SVG/1.1/DTD/svg11.dtd">
<svg version="1.1" id="Calque_1" xmlns="http://www.w3.org/2000/svg" xmlns:xlink="http://www.w3.org/1999/xlink" x="0px" y="0px"
	 width="222px" height="97.333px" viewBox="0 0 222 97.333" enable-background="new 0 0 222 97.333" xml:space="preserve">
<path opacity="0.1" fill="#65C7EF" d="M40.231,79.559c-13.068,0-23.7-10.632-23.7-23.7c0-5.593,1.985-11.022,5.59-15.289
	c2.174-2.573,4.926-4.694,7.959-6.133c3.185-1.512,6.601-2.279,10.151-2.279c13.068,0,23.7,10.632,23.7,23.701
	S53.299,79.559,40.231,79.559z M40.231,38.755c-2.564,0-5.028,0.553-7.323,1.642c-2.189,1.039-4.178,2.572-5.749,4.432
	c-2.6,3.077-4.032,6.994-4.032,11.031c0,9.431,7.673,17.103,17.104,17.103s17.104-7.672,17.104-17.103
	C57.335,46.428,49.662,38.755,40.231,38.755z"/>
<path fill="#65C7EF" d="M40.206,79.513c-13.069,0-23.7-10.632-23.7-23.701c0-5.592,1.985-11.023,5.59-15.288l5.039,4.257
	c-2.601,3.077-4.032,6.995-4.032,11.031c0,9.432,7.672,17.104,17.104,17.104c9.431,0,17.104-7.672,17.104-17.104
	c0-9.431-7.673-17.104-17.104-17.104v-6.597c13.068,0,23.7,10.632,23.7,23.701C63.906,68.881,53.274,79.513,40.206,79.513z"/>
<g>
	<path fill="#63C6EF" d="M35.416,56.948c-0.354,0-0.7-0.062-1.04-0.184s-0.643-0.308-0.908-0.556
		c-0.267-0.247-0.48-0.554-0.64-0.919c-0.162-0.366-0.241-0.793-0.241-1.284c0-0.457,0.083-0.886,0.254-1.288
		c0.169-0.401,0.408-0.752,0.713-1.054c0.308-0.302,0.675-0.541,1.104-0.715c0.429-0.174,0.903-0.261,1.422-0.261
		c0.524,0,0.994,0.083,1.412,0.247c0.417,0.166,0.772,0.396,1.067,0.693c0.294,0.297,0.521,0.654,0.679,1.069
		c0.158,0.415,0.237,0.87,0.237,1.364c0,0.316-0.028,0.616-0.082,0.899c-0.054,0.283-0.131,0.556-0.232,0.817
		c-0.103,0.262-0.223,0.517-0.365,0.765c-0.141,0.247-0.299,0.497-0.473,0.746l-2.342,3.339c-0.081,0.113-0.2,0.208-0.357,0.287
		c-0.159,0.077-0.339,0.116-0.542,0.116h-1.606l3.177-3.969c0.079-0.099,0.155-0.195,0.225-0.289
		c0.072-0.094,0.139-0.189,0.205-0.283c-0.236,0.151-0.495,0.265-0.778,0.343C36.025,56.909,35.729,56.948,35.416,56.948z
		 M37.8,53.884c0-0.277-0.042-0.527-0.127-0.745c-0.084-0.22-0.205-0.406-0.361-0.556c-0.155-0.151-0.34-0.267-0.555-0.347
		c-0.215-0.08-0.45-0.12-0.705-0.12c-0.264,0-0.502,0.043-0.713,0.13c-0.213,0.087-0.393,0.209-0.542,0.364
		c-0.148,0.157-0.263,0.341-0.343,0.556c-0.08,0.215-0.121,0.449-0.121,0.705c0,0.57,0.147,1.005,0.442,1.304
		c0.295,0.3,0.714,0.449,1.257,0.449c0.283,0,0.534-0.044,0.752-0.135c0.22-0.089,0.404-0.211,0.555-0.367
		c0.152-0.156,0.266-0.339,0.343-0.552C37.761,54.358,37.8,54.13,37.8,53.884z"/>
	<path fill="#63C6EF" d="M46.537,57.174h1.287v1.011c0,0.094-0.031,0.177-0.092,0.245c-0.062,0.068-0.151,0.102-0.269,0.102h-0.927
		v2.497H45.01v-2.497h-4.316c-0.118,0-0.221-0.036-0.312-0.109c-0.088-0.073-0.146-0.165-0.169-0.272l-0.177-0.884l4.846-6.473
		h1.656V57.174z M45.01,53.829c0-0.151,0.004-0.313,0.014-0.488c0.009-0.174,0.025-0.356,0.049-0.544l-3.177,4.378h3.114V53.829z"/>
</g>
<path opacity="0.1" fill="#65C7EF" d="M179.463,79.559c-13.068,0-23.7-10.632-23.7-23.7c0-5.593,1.985-11.022,5.59-15.289
	c2.174-2.573,4.926-4.694,7.96-6.133c3.185-1.512,6.6-2.279,10.15-2.279c13.069,0,23.701,10.632,23.701,23.701
	S192.532,79.559,179.463,79.559z M179.463,38.755c-2.563,0-5.027,0.553-7.322,1.642c-2.19,1.039-4.177,2.572-5.749,4.432
	c-2.6,3.077-4.032,6.994-4.032,11.031c0,9.431,7.673,17.103,17.104,17.103c9.431,0,17.104-7.672,17.104-17.103
	C196.567,46.428,188.895,38.755,179.463,38.755z"/>
<path fill="#65C7EF" d="M179.438,79.513c-13.068,0-23.7-10.632-23.7-23.701h6.596c0,9.432,7.673,17.104,17.104,17.104
	s17.103-7.672,17.103-17.104c0-9.431-7.672-17.104-17.103-17.104v-6.597c13.069,0,23.7,10.632,23.7,23.701
	C203.139,68.881,192.507,79.513,179.438,79.513z"/>
<g>
	<path fill="#63C6EF" d="M22.605,21.442v1.209h-0.638v-3.435h1.118c0.23,0,0.428,0.027,0.596,0.082
		c0.167,0.054,0.307,0.129,0.416,0.225c0.109,0.097,0.19,0.213,0.242,0.347s0.079,0.281,0.079,0.441
		c0,0.167-0.028,0.319-0.083,0.458c-0.056,0.138-0.139,0.257-0.25,0.357c-0.111,0.1-0.25,0.177-0.416,0.233
		c-0.166,0.055-0.361,0.083-0.584,0.083H22.605z M22.605,20.944h0.48c0.117,0,0.22-0.015,0.307-0.044s0.159-0.071,0.216-0.126
		c0.057-0.054,0.1-0.121,0.128-0.199c0.029-0.079,0.043-0.166,0.043-0.263c0-0.092-0.014-0.175-0.043-0.25
		c-0.028-0.074-0.071-0.137-0.128-0.189s-0.129-0.092-0.216-0.12c-0.087-0.027-0.189-0.042-0.307-0.042h-0.48V20.944z"/>
	<path fill="#63C6EF" d="M27.08,19.217v0.509h-1.522v0.952h1.199v0.492h-1.199v0.971h1.522v0.511h-2.166v-3.435H27.08z"/>
	<path fill="#63C6EF" d="M28.292,21.31v1.342h-0.638v-3.435h1.047c0.234,0,0.435,0.025,0.602,0.073
		c0.167,0.049,0.304,0.116,0.411,0.203c0.107,0.087,0.186,0.191,0.235,0.312c0.05,0.121,0.075,0.255,0.075,0.4
		c0,0.115-0.017,0.224-0.052,0.328c-0.034,0.103-0.083,0.196-0.147,0.28c-0.064,0.083-0.143,0.158-0.237,0.22
		c-0.094,0.064-0.202,0.114-0.322,0.153c0.081,0.045,0.15,0.111,0.208,0.196l0.86,1.269H29.76c-0.055,0-0.103-0.011-0.141-0.033
		c-0.039-0.022-0.072-0.054-0.098-0.095l-0.722-1.099c-0.027-0.042-0.057-0.071-0.089-0.088c-0.033-0.017-0.08-0.026-0.144-0.026
		H28.292z M28.292,20.852h0.399c0.121,0,0.226-0.016,0.315-0.045c0.089-0.031,0.163-0.072,0.22-0.125
		c0.058-0.053,0.101-0.116,0.13-0.188c0.028-0.073,0.042-0.153,0.042-0.24c0-0.174-0.057-0.307-0.172-0.401
		c-0.114-0.093-0.29-0.14-0.526-0.14h-0.409V20.852z"/>
	<path fill="#63C6EF" d="M32.91,19.217v0.509h-1.522v1.016h1.285v0.511h-1.285v1.399h-0.644v-3.435H32.91z"/>
	<path fill="#63C6EF" d="M36.704,20.935c0,0.252-0.042,0.484-0.126,0.699c-0.083,0.215-0.202,0.4-0.354,0.557
		s-0.335,0.279-0.548,0.367c-0.214,0.088-0.451,0.131-0.71,0.131c-0.259,0-0.497-0.043-0.711-0.131
		c-0.214-0.088-0.398-0.21-0.551-0.367s-0.271-0.342-0.354-0.557c-0.084-0.215-0.126-0.447-0.126-0.699
		c0-0.251,0.042-0.485,0.126-0.7c0.083-0.214,0.202-0.4,0.354-0.557c0.153-0.156,0.336-0.279,0.551-0.367
		c0.215-0.088,0.452-0.131,0.711-0.131c0.26,0,0.497,0.044,0.71,0.133c0.213,0.088,0.396,0.21,0.548,0.367s0.27,0.341,0.354,0.556
		C36.663,20.45,36.704,20.683,36.704,20.935z M36.049,20.935c0-0.189-0.025-0.357-0.075-0.507c-0.05-0.149-0.122-0.276-0.214-0.381
		c-0.093-0.104-0.207-0.185-0.341-0.24s-0.285-0.083-0.453-0.083s-0.318,0.028-0.454,0.083c-0.134,0.055-0.249,0.136-0.343,0.24
		c-0.095,0.104-0.167,0.231-0.218,0.381c-0.051,0.15-0.076,0.318-0.076,0.507c0,0.188,0.025,0.357,0.076,0.506
		c0.051,0.15,0.123,0.276,0.218,0.38c0.094,0.104,0.208,0.183,0.343,0.238c0.135,0.056,0.286,0.084,0.454,0.084
		s0.319-0.028,0.453-0.084c0.134-0.055,0.248-0.134,0.341-0.238c0.093-0.104,0.165-0.23,0.214-0.38
		C36.024,21.292,36.049,21.123,36.049,20.935z"/>
	<path fill="#63C6EF" d="M37.868,21.31v1.342h-0.639v-3.435h1.047c0.235,0,0.435,0.025,0.603,0.073
		c0.167,0.049,0.304,0.116,0.411,0.203s0.185,0.191,0.235,0.312c0.05,0.121,0.075,0.255,0.075,0.4c0,0.115-0.017,0.224-0.051,0.328
		c-0.035,0.103-0.083,0.196-0.147,0.28c-0.064,0.083-0.143,0.158-0.237,0.22c-0.094,0.064-0.202,0.114-0.322,0.153
		c0.081,0.045,0.151,0.111,0.209,0.196l0.86,1.269h-0.574c-0.056,0-0.103-0.011-0.141-0.033c-0.039-0.022-0.072-0.054-0.099-0.095
		l-0.721-1.099c-0.027-0.042-0.057-0.071-0.089-0.088c-0.033-0.017-0.081-0.026-0.144-0.026H37.868z M37.868,20.852h0.399
		c0.12,0,0.225-0.016,0.314-0.045c0.09-0.031,0.163-0.072,0.221-0.125c0.058-0.053,0.101-0.116,0.129-0.188
		c0.028-0.073,0.042-0.153,0.042-0.24c0-0.174-0.058-0.307-0.172-0.401c-0.116-0.093-0.29-0.14-0.526-0.14h-0.408V20.852z"/>
	<path fill="#63C6EF" d="M42.118,21.385c0.023,0.054,0.045,0.109,0.068,0.165c0.022-0.058,0.045-0.114,0.069-0.169
		c0.024-0.056,0.049-0.108,0.076-0.16l1.017-1.902c0.012-0.023,0.025-0.042,0.039-0.057c0.013-0.015,0.028-0.025,0.045-0.031
		c0.017-0.006,0.035-0.01,0.056-0.012s0.045-0.003,0.074-0.003h0.482v3.435H43.48v-2.218c0-0.041,0.001-0.086,0.003-0.135
		c0.002-0.049,0.005-0.099,0.011-0.149l-1.038,1.947c-0.024,0.044-0.055,0.079-0.093,0.103c-0.038,0.025-0.082,0.037-0.133,0.037
		h-0.087c-0.051,0-0.095-0.012-0.133-0.037c-0.038-0.024-0.069-0.059-0.093-0.103l-1.052-1.955c0.006,0.052,0.011,0.104,0.013,0.153
		c0.002,0.05,0.003,0.097,0.003,0.139v2.218h-0.562v-3.435h0.482c0.029,0,0.053,0.001,0.073,0.003
		c0.021,0.001,0.04,0.006,0.056,0.012c0.017,0.006,0.032,0.017,0.046,0.031c0.014,0.014,0.028,0.033,0.041,0.057l1.026,1.907
		C42.07,21.277,42.095,21.33,42.118,21.385z"/>
	<path fill="#63C6EF" d="M47.754,22.651H47.26c-0.056,0-0.101-0.014-0.137-0.042c-0.035-0.027-0.062-0.062-0.077-0.103l-0.256-0.701
		h-1.423l-0.256,0.701c-0.013,0.036-0.038,0.069-0.075,0.1c-0.037,0.03-0.083,0.045-0.136,0.045h-0.497l1.349-3.435h0.653
		L47.754,22.651z M45.532,21.354h1.094l-0.417-1.142c-0.019-0.051-0.04-0.111-0.063-0.179c-0.023-0.069-0.045-0.144-0.067-0.224
		c-0.022,0.08-0.044,0.155-0.065,0.225c-0.021,0.07-0.043,0.131-0.063,0.183L45.532,21.354z"/>
	<path fill="#63C6EF" d="M48.514,19.221c0.019,0.002,0.036,0.007,0.051,0.014c0.015,0.007,0.029,0.018,0.043,0.031
		c0.015,0.014,0.031,0.031,0.048,0.053l1.803,2.296c-0.006-0.055-0.011-0.109-0.014-0.162c-0.002-0.053-0.003-0.103-0.003-0.148
		v-2.088h0.563v3.435h-0.33c-0.05,0-0.093-0.008-0.125-0.024c-0.034-0.016-0.066-0.044-0.098-0.085l-1.795-2.287
		c0.005,0.051,0.008,0.101,0.011,0.151c0.002,0.05,0.004,0.095,0.004,0.136v2.109h-0.563v-3.435h0.335
		C48.471,19.217,48.496,19.219,48.514,19.221z"/>
	<path fill="#63C6EF" d="M54.059,21.842c0.036,0,0.065,0.014,0.091,0.04l0.252,0.273c-0.139,0.172-0.311,0.305-0.515,0.396
		c-0.203,0.092-0.447,0.137-0.732,0.137c-0.255,0-0.484-0.043-0.688-0.13c-0.204-0.087-0.377-0.208-0.521-0.363
		s-0.254-0.34-0.331-0.555c-0.077-0.215-0.115-0.451-0.115-0.706c0-0.258,0.042-0.495,0.128-0.709
		c0.085-0.214,0.206-0.399,0.361-0.555c0.155-0.155,0.34-0.275,0.557-0.362c0.216-0.086,0.454-0.129,0.715-0.129
		c0.255,0,0.478,0.04,0.668,0.122c0.191,0.081,0.354,0.19,0.491,0.324l-0.214,0.297c-0.012,0.019-0.029,0.035-0.049,0.049
		c-0.02,0.014-0.047,0.021-0.082,0.021c-0.037,0-0.074-0.015-0.112-0.043c-0.038-0.028-0.086-0.06-0.145-0.092
		c-0.059-0.034-0.133-0.064-0.223-0.093c-0.089-0.029-0.203-0.043-0.341-0.043c-0.161,0-0.31,0.028-0.445,0.084
		c-0.135,0.057-0.251,0.137-0.349,0.241c-0.098,0.104-0.173,0.232-0.228,0.381c-0.055,0.15-0.082,0.318-0.082,0.505
		c0,0.193,0.027,0.365,0.082,0.515s0.129,0.277,0.222,0.38c0.093,0.103,0.203,0.181,0.33,0.236c0.127,0.055,0.263,0.082,0.409,0.082
		c0.087,0,0.166-0.004,0.236-0.015c0.07-0.009,0.135-0.024,0.195-0.045c0.059-0.02,0.115-0.047,0.169-0.08
		c0.052-0.033,0.105-0.072,0.158-0.12c0.016-0.014,0.032-0.026,0.049-0.035C54.02,21.846,54.038,21.842,54.059,21.842z"/>
	<path fill="#63C6EF" d="M57.049,19.217v0.509h-1.522v0.952h1.199v0.492h-1.199v0.971h1.522v0.511h-2.167v-3.435H57.049z"/>
</g>
<path opacity="0.1" fill="#65C7EF" d="M108.663,79.559c-13.068,0-23.7-10.632-23.7-23.7c0-5.593,1.985-11.023,5.59-15.289
	c2.174-2.573,4.926-4.694,7.96-6.133c3.186-1.512,6.601-2.279,10.15-2.279c13.068,0,23.701,10.632,23.701,23.701
	S121.731,79.559,108.663,79.559z M108.663,38.755c-2.563,0-5.027,0.553-7.322,1.642c-2.189,1.039-4.178,2.572-5.749,4.432
	c-2.6,3.077-4.032,6.994-4.032,11.031c0,9.431,7.672,17.103,17.103,17.103c9.431,0,17.104-7.672,17.104-17.103
	C125.767,46.428,118.094,38.755,108.663,38.755z"/>
<path fill="#65C7EF" d="M108.638,79.513c-9.391,0-17.907-5.554-21.696-14.149l6.036-2.661c2.735,6.205,8.881,10.213,15.66,10.213
	c9.431,0,17.104-7.672,17.104-17.104c0-9.431-7.673-17.104-17.104-17.104v-6.597c13.068,0,23.7,10.632,23.7,23.701
	C132.338,68.881,121.706,79.513,108.638,79.513z"/>
<g>
	<path fill="#63C6EF" d="M107.799,50.713v0.755c0,0.226-0.024,0.408-0.074,0.547c-0.049,0.139-0.098,0.255-0.145,0.35l-3.859,7.959
		c-0.08,0.165-0.193,0.305-0.339,0.419c-0.146,0.116-0.344,0.173-0.593,0.173h-1.263l3.951-7.797
		c0.165-0.321,0.349-0.595,0.551-0.826h-4.883c-0.108,0-0.202-0.041-0.282-0.12c-0.081-0.08-0.121-0.174-0.121-0.282v-1.178H107.799
		z"/>
	<path fill="#63C6EF" d="M112.661,50.599c0.47,0,0.895,0.068,1.273,0.201c0.378,0.134,0.702,0.32,0.971,0.559
		c0.268,0.237,0.473,0.516,0.617,0.835c0.144,0.321,0.215,0.666,0.215,1.038c0,0.325-0.037,0.611-0.109,0.857
		c-0.074,0.248-0.179,0.463-0.318,0.646c-0.138,0.184-0.308,0.339-0.508,0.466c-0.199,0.127-0.426,0.233-0.68,0.317
		c0.611,0.193,1.067,0.487,1.369,0.883c0.301,0.396,0.451,0.891,0.451,1.489c0,0.508-0.094,0.957-0.283,1.347
		c-0.188,0.391-0.441,0.719-0.761,0.984c-0.32,0.266-0.691,0.467-1.112,0.604c-0.421,0.136-0.867,0.204-1.337,0.204
		c-0.512,0-0.96-0.059-1.341-0.176c-0.38-0.117-0.711-0.292-0.995-0.522c-0.281-0.23-0.522-0.513-0.719-0.847
		c-0.198-0.333-0.367-0.721-0.508-1.157l0.769-0.317c0.132-0.057,0.266-0.085,0.402-0.085c0.122,0,0.232,0.026,0.328,0.078
		s0.171,0.127,0.223,0.226c0.085,0.164,0.178,0.327,0.279,0.486c0.101,0.16,0.222,0.302,0.362,0.428
		c0.142,0.125,0.308,0.225,0.499,0.303c0.19,0.077,0.417,0.116,0.681,0.116c0.297,0,0.556-0.048,0.776-0.145
		c0.221-0.096,0.406-0.222,0.554-0.377c0.148-0.155,0.259-0.328,0.332-0.518c0.073-0.19,0.109-0.382,0.109-0.575
		c0-0.245-0.026-0.467-0.077-0.667c-0.052-0.2-0.16-0.371-0.325-0.511c-0.165-0.142-0.401-0.252-0.71-0.333
		c-0.307-0.08-0.72-0.12-1.238-0.12v-1.249c0.428,0,0.783-0.039,1.066-0.114c0.282-0.074,0.507-0.179,0.674-0.313
		c0.167-0.134,0.284-0.295,0.349-0.483c0.065-0.189,0.098-0.396,0.098-0.621c0-0.485-0.131-0.851-0.394-1.098
		c-0.264-0.247-0.625-0.371-1.081-0.371c-0.414,0-0.757,0.11-1.03,0.328c-0.272,0.219-0.463,0.5-0.571,0.843
		c-0.057,0.178-0.134,0.307-0.233,0.384c-0.099,0.078-0.229,0.117-0.388,0.117c-0.076,0-0.156-0.007-0.24-0.021l-0.917-0.161
		c0.07-0.489,0.207-0.918,0.409-1.288c0.202-0.369,0.455-0.678,0.759-0.925c0.303-0.247,0.651-0.433,1.044-0.558
		C111.787,50.662,112.21,50.599,112.661,50.599z"/>
</g>
<g>
	<path fill="#63C6EF" d="M98.672,21.748c0.032,0,0.059,0.012,0.083,0.037l0.231,0.251c-0.128,0.158-0.285,0.279-0.472,0.364
		c-0.187,0.084-0.411,0.126-0.672,0.126c-0.234,0-0.444-0.04-0.631-0.119c-0.187-0.081-0.346-0.191-0.478-0.334
		c-0.133-0.142-0.233-0.312-0.305-0.51c-0.07-0.198-0.105-0.414-0.105-0.647c0-0.236,0.04-0.453,0.118-0.649
		c0.078-0.198,0.188-0.367,0.331-0.509c0.142-0.143,0.313-0.253,0.511-0.333c0.198-0.079,0.417-0.119,0.656-0.119
		c0.234,0,0.439,0.038,0.614,0.112c0.175,0.075,0.325,0.174,0.45,0.297l-0.197,0.273c-0.011,0.018-0.026,0.032-0.044,0.045
		c-0.018,0.014-0.043,0.02-0.075,0.02c-0.033,0-0.068-0.013-0.102-0.039c-0.035-0.026-0.079-0.055-0.133-0.084
		c-0.054-0.031-0.122-0.06-0.204-0.085c-0.083-0.026-0.187-0.04-0.313-0.04c-0.148,0-0.285,0.025-0.409,0.077
		c-0.124,0.052-0.23,0.125-0.319,0.221c-0.09,0.096-0.16,0.212-0.21,0.35c-0.05,0.137-0.075,0.292-0.075,0.462
		c0,0.178,0.025,0.335,0.075,0.473s0.118,0.254,0.204,0.349c0.086,0.094,0.187,0.166,0.303,0.216s0.241,0.075,0.375,0.075
		c0.081,0,0.153-0.004,0.218-0.013c0.063-0.008,0.124-0.022,0.178-0.041c0.054-0.02,0.106-0.043,0.154-0.073
		c0.049-0.03,0.097-0.066,0.145-0.11c0.015-0.013,0.03-0.024,0.046-0.032C98.636,21.751,98.654,21.748,98.672,21.748z"/>
	<path fill="#63C6EF" d="M102.451,20.915c0,0.231-0.039,0.445-0.116,0.642s-0.185,0.367-0.324,0.511
		c-0.14,0.144-0.308,0.256-0.503,0.336c-0.196,0.081-0.414,0.121-0.651,0.121c-0.239,0-0.456-0.04-0.653-0.121
		c-0.196-0.08-0.365-0.193-0.505-0.336c-0.14-0.144-0.249-0.314-0.326-0.511c-0.077-0.197-0.115-0.411-0.115-0.642
		c0-0.23,0.039-0.444,0.115-0.641c0.077-0.197,0.186-0.367,0.326-0.511c0.14-0.144,0.309-0.256,0.505-0.336
		c0.198-0.081,0.415-0.121,0.653-0.121c0.238,0,0.455,0.041,0.651,0.123c0.196,0.081,0.364,0.193,0.503,0.336
		c0.139,0.143,0.247,0.313,0.324,0.51S102.451,20.684,102.451,20.915z M101.849,20.915c0-0.172-0.023-0.328-0.068-0.465
		c-0.046-0.137-0.111-0.254-0.197-0.35s-0.19-0.169-0.313-0.22c-0.123-0.052-0.261-0.077-0.415-0.077
		c-0.154,0-0.293,0.025-0.417,0.077c-0.124,0.05-0.228,0.124-0.315,0.22c-0.086,0.096-0.152,0.212-0.199,0.35
		s-0.07,0.292-0.07,0.465c0,0.173,0.023,0.328,0.07,0.466c0.046,0.137,0.113,0.253,0.199,0.348c0.087,0.096,0.192,0.168,0.315,0.219
		c0.123,0.051,0.262,0.077,0.417,0.077c0.153,0,0.292-0.026,0.415-0.077c0.123-0.051,0.227-0.124,0.313-0.219
		c0.086-0.095,0.151-0.211,0.197-0.348C101.826,21.243,101.849,21.087,101.849,20.915z"/>
	<path fill="#63C6EF" d="M103.285,19.343c0.018,0.002,0.033,0.006,0.047,0.013s0.027,0.016,0.041,0.028
		c0.013,0.012,0.027,0.029,0.043,0.049l1.654,2.107c-0.006-0.051-0.01-0.101-0.012-0.149c-0.002-0.048-0.003-0.094-0.003-0.136
		v-1.916h0.516v3.151h-0.303c-0.046,0-0.084-0.007-0.115-0.022c-0.03-0.014-0.061-0.04-0.09-0.078l-1.647-2.098
		c0.004,0.046,0.008,0.092,0.01,0.138c0.002,0.046,0.003,0.088,0.003,0.125v1.935h-0.516v-3.151h0.307
		C103.246,19.339,103.268,19.341,103.285,19.343z"/>
	<path fill="#63C6EF" d="M108.427,19.339v0.481h-0.948v2.669h-0.586v-2.669h-0.952v-0.481H108.427z"/>
	<path fill="#63C6EF" d="M109.406,21.259v1.231h-0.586v-3.151h0.961c0.214,0,0.399,0.023,0.552,0.067
		c0.153,0.044,0.279,0.106,0.377,0.187c0.098,0.08,0.17,0.175,0.216,0.286c0.045,0.111,0.069,0.234,0.069,0.367
		c0,0.106-0.016,0.207-0.047,0.301c-0.031,0.094-0.076,0.18-0.135,0.257s-0.131,0.145-0.218,0.203
		c-0.086,0.058-0.185,0.104-0.295,0.139c0.074,0.042,0.138,0.103,0.191,0.181l0.789,1.164h-0.526c-0.051,0-0.095-0.01-0.13-0.03
		c-0.035-0.021-0.066-0.049-0.09-0.087l-0.662-1.009c-0.025-0.038-0.052-0.064-0.082-0.08c-0.03-0.017-0.074-0.024-0.132-0.024
		H109.406z M109.406,20.839h0.366c0.11,0,0.207-0.014,0.289-0.042c0.083-0.027,0.15-0.065,0.203-0.114
		c0.053-0.049,0.092-0.106,0.118-0.173c0.027-0.067,0.04-0.14,0.04-0.22c0-0.16-0.052-0.282-0.157-0.368
		c-0.106-0.086-0.267-0.129-0.483-0.129h-0.375V20.839z"/>
	<path fill="#63C6EF" d="M114.572,20.915c0,0.231-0.038,0.445-0.116,0.642c-0.077,0.197-0.185,0.367-0.324,0.511
		c-0.14,0.144-0.307,0.256-0.503,0.336c-0.196,0.081-0.413,0.121-0.651,0.121c-0.239,0-0.456-0.04-0.653-0.121
		c-0.197-0.08-0.365-0.193-0.505-0.336c-0.14-0.144-0.249-0.314-0.327-0.511c-0.077-0.197-0.115-0.411-0.115-0.642
		c0-0.23,0.039-0.444,0.115-0.641c0.078-0.197,0.187-0.367,0.327-0.511c0.14-0.144,0.308-0.256,0.505-0.336
		c0.197-0.081,0.415-0.121,0.653-0.121c0.238,0,0.456,0.041,0.651,0.123c0.196,0.081,0.363,0.193,0.503,0.336
		c0.139,0.143,0.248,0.313,0.324,0.51C114.534,20.47,114.572,20.684,114.572,20.915z M113.971,20.915
		c0-0.172-0.022-0.328-0.068-0.465c-0.046-0.137-0.111-0.254-0.198-0.35c-0.084-0.096-0.19-0.169-0.312-0.22
		c-0.123-0.052-0.261-0.077-0.415-0.077c-0.154,0-0.293,0.025-0.417,0.077c-0.124,0.05-0.229,0.124-0.315,0.22
		c-0.086,0.096-0.153,0.212-0.2,0.35c-0.046,0.137-0.069,0.292-0.069,0.465c0,0.173,0.023,0.328,0.069,0.466
		c0.047,0.137,0.114,0.253,0.2,0.348c0.086,0.096,0.191,0.168,0.315,0.219c0.123,0.051,0.262,0.077,0.417,0.077
		c0.154,0,0.292-0.026,0.415-0.077c0.122-0.051,0.228-0.124,0.312-0.219c0.086-0.095,0.151-0.211,0.198-0.348
		C113.948,21.243,113.971,21.087,113.971,20.915z M113.776,19.115h-0.407c-0.022,0-0.046-0.003-0.072-0.009
		c-0.026-0.005-0.047-0.014-0.063-0.026l-0.22-0.146c-0.006-0.003-0.012-0.007-0.016-0.011c-0.005-0.004-0.011-0.009-0.017-0.013
		c-0.003,0.003-0.007,0.007-0.013,0.011c-0.006,0.004-0.012,0.008-0.02,0.013l-0.22,0.146c-0.017,0.012-0.037,0.021-0.063,0.026
		c-0.026,0.006-0.05,0.009-0.072,0.009h-0.407l0.527-0.478h0.537L113.776,19.115z"/>
	<path fill="#63C6EF" d="M115.62,22.007h1.262v0.483h-1.847v-3.151h0.585V22.007z"/>
	<path fill="#63C6EF" d="M119.274,19.339v0.467h-1.396v0.874h1.1v0.451h-1.1v0.892h1.396v0.468h-1.987v-3.151H119.274z"/>
</g>
<g>
	<path fill="#65C7EF" d="M175.421,60.917c-0.51,0-0.977-0.068-1.398-0.205c-0.422-0.137-0.783-0.33-1.084-0.581
		c-0.3-0.251-0.534-0.554-0.7-0.91c-0.167-0.356-0.25-0.752-0.25-1.19c0-0.583,0.144-1.077,0.43-1.48
		c0.288-0.403,0.734-0.703,1.341-0.899c-0.483-0.2-0.845-0.485-1.084-0.854c-0.239-0.37-0.359-0.813-0.359-1.334
		c0-0.373,0.076-0.723,0.229-1.047c0.152-0.323,0.365-0.604,0.639-0.843c0.273-0.24,0.601-0.427,0.981-0.561
		c0.381-0.135,0.799-0.201,1.254-0.201c0.457,0,0.875,0.066,1.255,0.201c0.381,0.134,0.708,0.321,0.981,0.561
		c0.273,0.239,0.487,0.52,0.64,0.843c0.153,0.324,0.229,0.674,0.229,1.047c0,0.521-0.121,0.964-0.362,1.334
		c-0.242,0.369-0.602,0.654-1.081,0.854c0.606,0.196,1.053,0.496,1.34,0.899c0.288,0.403,0.431,0.897,0.431,1.48
		c0,0.438-0.083,0.834-0.25,1.19c-0.167,0.355-0.399,0.659-0.701,0.91c-0.301,0.251-0.662,0.444-1.083,0.581
		C176.398,60.849,175.933,60.917,175.421,60.917z M175.421,59.597c0.278,0,0.522-0.04,0.733-0.12
		c0.208-0.08,0.386-0.189,0.529-0.332c0.144-0.142,0.252-0.311,0.325-0.506c0.072-0.195,0.109-0.408,0.109-0.636
		c0-0.543-0.151-0.953-0.452-1.232c-0.3-0.278-0.715-0.417-1.245-0.417c-0.528,0-0.943,0.139-1.244,0.417
		c-0.301,0.279-0.451,0.689-0.451,1.232c0,0.228,0.036,0.44,0.109,0.636c0.073,0.195,0.182,0.364,0.325,0.506
		c0.144,0.142,0.32,0.252,0.53,0.332C174.9,59.557,175.144,59.597,175.421,59.597z M175.421,55.028c0.274,0,0.505-0.042,0.691-0.13
		c0.187-0.086,0.337-0.202,0.452-0.346c0.113-0.143,0.194-0.308,0.242-0.492c0.048-0.184,0.072-0.375,0.072-0.57
		c0-0.187-0.029-0.365-0.089-0.534c-0.06-0.168-0.148-0.318-0.267-0.448c-0.118-0.129-0.269-0.233-0.452-0.311
		c-0.182-0.078-0.398-0.116-0.65-0.116c-0.25,0-0.467,0.039-0.649,0.116c-0.182,0.078-0.334,0.182-0.454,0.311
		c-0.121,0.13-0.21,0.28-0.267,0.448c-0.057,0.168-0.085,0.347-0.085,0.534c0,0.196,0.024,0.386,0.072,0.57
		c0.047,0.185,0.128,0.349,0.243,0.492c0.113,0.144,0.263,0.26,0.451,0.346C174.918,54.986,175.149,55.028,175.421,55.028z"/>
	<path fill="#65C7EF" d="M183.013,56.861c-0.342,0-0.678-0.059-1.006-0.177c-0.328-0.119-0.621-0.297-0.878-0.537
		c-0.258-0.24-0.464-0.536-0.619-0.889c-0.154-0.354-0.231-0.767-0.231-1.241c0-0.442,0.082-0.857,0.246-1.245
		c0.165-0.388,0.394-0.727,0.69-1.019c0.296-0.292,0.652-0.521,1.067-0.691c0.415-0.168,0.874-0.252,1.375-0.252
		c0.506,0,0.96,0.079,1.364,0.238c0.404,0.161,0.748,0.383,1.033,0.67c0.285,0.287,0.503,0.631,0.656,1.033s0.229,0.841,0.229,1.319
		c0,0.307-0.025,0.596-0.078,0.869s-0.127,0.537-0.226,0.79c-0.098,0.253-0.216,0.5-0.353,0.74c-0.137,0.238-0.29,0.479-0.458,0.72
		l-2.263,3.229c-0.078,0.109-0.193,0.201-0.346,0.277c-0.153,0.075-0.328,0.112-0.523,0.112h-1.552l3.07-3.836
		c0.078-0.095,0.151-0.189,0.219-0.281c0.068-0.091,0.135-0.181,0.198-0.273c-0.228,0.147-0.479,0.256-0.752,0.332
		C183.601,56.823,183.313,56.861,183.013,56.861z M185.317,53.9c0-0.269-0.041-0.51-0.124-0.722
		c-0.082-0.212-0.198-0.391-0.348-0.537c-0.151-0.146-0.331-0.258-0.538-0.335s-0.434-0.117-0.68-0.117
		c-0.255,0-0.485,0.042-0.69,0.127s-0.38,0.203-0.523,0.353c-0.144,0.15-0.254,0.329-0.332,0.537
		c-0.077,0.207-0.116,0.434-0.116,0.681c0,0.551,0.142,0.972,0.428,1.262c0.284,0.289,0.689,0.433,1.213,0.433
		c0.273,0,0.516-0.043,0.728-0.129c0.213-0.086,0.392-0.205,0.537-0.356c0.146-0.149,0.256-0.328,0.332-0.534
		C185.28,54.358,185.317,54.138,185.317,53.9z"/>
</g>
<g>
	<path fill="#63C6EF" d="M167.465,19.212h0.487c0.052,0,0.095,0.012,0.127,0.039c0.032,0.025,0.057,0.058,0.074,0.098l0.762,1.978
		c0.025,0.064,0.05,0.135,0.073,0.211c0.023,0.078,0.045,0.158,0.066,0.244c0.035-0.172,0.078-0.324,0.128-0.455l0.76-1.978
		c0.013-0.034,0.037-0.065,0.072-0.094c0.034-0.028,0.077-0.043,0.127-0.043h0.487l-1.31,3.242h-0.544L167.465,19.212z"/>
	<path fill="#63C6EF" d="M171.647,22.454h-0.606v-3.242h0.606V22.454z"/>
	<path fill="#63C6EF" d="M174.113,19.802c-0.017,0.033-0.036,0.056-0.058,0.069c-0.021,0.013-0.047,0.021-0.077,0.021
		c-0.03,0-0.063-0.012-0.101-0.035c-0.038-0.023-0.082-0.049-0.132-0.077c-0.052-0.028-0.111-0.054-0.179-0.078
		c-0.068-0.022-0.148-0.034-0.241-0.034c-0.083,0-0.156,0.01-0.219,0.03c-0.062,0.021-0.114,0.048-0.157,0.084
		c-0.042,0.036-0.074,0.079-0.096,0.129c-0.02,0.05-0.031,0.104-0.031,0.165c0,0.076,0.021,0.14,0.063,0.19
		c0.043,0.051,0.099,0.094,0.17,0.13c0.069,0.036,0.149,0.068,0.239,0.097c0.09,0.028,0.182,0.058,0.275,0.09
		c0.093,0.032,0.185,0.069,0.274,0.112c0.09,0.043,0.17,0.097,0.241,0.162c0.07,0.065,0.126,0.144,0.168,0.238
		c0.043,0.095,0.064,0.209,0.064,0.344c0,0.146-0.025,0.283-0.075,0.411s-0.123,0.239-0.22,0.334
		c-0.096,0.096-0.214,0.169-0.353,0.224c-0.138,0.055-0.298,0.082-0.477,0.082c-0.104,0-0.205-0.01-0.305-0.03
		c-0.1-0.021-0.197-0.049-0.288-0.086c-0.092-0.038-0.178-0.082-0.258-0.135c-0.081-0.052-0.152-0.11-0.215-0.174l0.175-0.29
		c0.016-0.021,0.036-0.038,0.06-0.053c0.023-0.014,0.049-0.021,0.077-0.021c0.038,0,0.077,0.015,0.121,0.046
		c0.043,0.03,0.094,0.064,0.154,0.102c0.059,0.037,0.128,0.071,0.208,0.102c0.08,0.031,0.176,0.046,0.288,0.046
		c0.172,0,0.306-0.041,0.399-0.122c0.095-0.082,0.142-0.198,0.142-0.352c0-0.084-0.021-0.154-0.064-0.208
		c-0.043-0.054-0.099-0.1-0.169-0.136c-0.07-0.036-0.15-0.067-0.24-0.093c-0.089-0.025-0.181-0.053-0.273-0.083
		c-0.093-0.03-0.184-0.066-0.273-0.107c-0.09-0.042-0.17-0.097-0.24-0.164c-0.07-0.067-0.127-0.152-0.169-0.252
		c-0.042-0.102-0.063-0.226-0.063-0.374c0-0.118,0.023-0.233,0.07-0.345c0.047-0.112,0.116-0.212,0.207-0.298
		c0.091-0.087,0.201-0.157,0.333-0.208c0.131-0.053,0.281-0.079,0.451-0.079c0.19,0,0.367,0.03,0.528,0.09
		c0.162,0.06,0.299,0.144,0.413,0.251L174.113,19.802z"/>
	<path fill="#63C6EF" d="M175.46,22.454h-0.605v-3.242h0.605V22.454z"/>
	<path fill="#63C6EF" d="M176.189,22.454v-3.242h1.119c0.211,0,0.393,0.021,0.543,0.061c0.15,0.04,0.274,0.097,0.37,0.172
		c0.096,0.075,0.168,0.165,0.212,0.271c0.045,0.106,0.067,0.226,0.067,0.359c0,0.076-0.012,0.149-0.034,0.219
		c-0.023,0.069-0.058,0.134-0.104,0.195c-0.047,0.061-0.107,0.116-0.179,0.165c-0.072,0.049-0.159,0.091-0.259,0.125
		c0.445,0.1,0.669,0.34,0.669,0.722c0,0.137-0.027,0.265-0.079,0.381c-0.052,0.117-0.128,0.218-0.228,0.302
		c-0.101,0.085-0.225,0.151-0.371,0.199c-0.146,0.047-0.313,0.071-0.502,0.071H176.189z M176.792,20.616h0.482
		c0.205,0,0.36-0.037,0.465-0.112c0.107-0.075,0.16-0.194,0.16-0.356c0-0.169-0.048-0.29-0.144-0.361
		c-0.095-0.072-0.245-0.108-0.448-0.108h-0.516V20.616z M176.792,21.033v0.951h0.611c0.112,0,0.206-0.014,0.282-0.041
		c0.075-0.027,0.136-0.063,0.181-0.108c0.046-0.044,0.078-0.097,0.099-0.156c0.021-0.061,0.03-0.124,0.03-0.191
		c0-0.07-0.011-0.134-0.034-0.189c-0.022-0.056-0.058-0.104-0.105-0.144c-0.048-0.04-0.109-0.07-0.184-0.091
		c-0.075-0.021-0.166-0.031-0.271-0.031H176.792z"/>
	<path fill="#63C6EF" d="M179.79,22.454h-0.605v-3.242h0.605V22.454z"/>
	<path fill="#63C6EF" d="M181.121,21.957h1.298v0.497h-1.901v-3.242h0.603V21.957z"/>
	<path fill="#63C6EF" d="M183.516,22.454h-0.606v-3.242h0.606V22.454z"/>
	<path fill="#63C6EF" d="M186.529,19.212v0.496h-0.975v2.746h-0.603v-2.746h-0.98v-0.496H186.529z"/>
	<path fill="#63C6EF" d="M188.957,19.212v0.48h-1.437v0.899h1.132v0.464h-1.132v0.917h1.437v0.481h-2.044v-3.242H188.957z
		 M188.83,18.439l-0.664,0.484c-0.017,0.012-0.033,0.021-0.047,0.029c-0.014,0.008-0.028,0.014-0.042,0.019
		c-0.015,0.004-0.03,0.007-0.045,0.009c-0.015,0.001-0.034,0.002-0.055,0.002h-0.436l0.44-0.453c0.018-0.018,0.035-0.033,0.05-0.045
		c0.016-0.012,0.032-0.021,0.048-0.027c0.016-0.007,0.035-0.011,0.056-0.014c0.021-0.002,0.046-0.003,0.076-0.003H188.83z"/>
</g>
</svg>
