<?xml version="1.0" encoding="utf-8"?>
<!-- Generator: Adobe Illustrator 16.0.0, SVG Export Plug-In . SVG Version: 6.00 Build 0)  -->
<!DOCTYPE svg PUBLIC "-//W3C//DTD SVG 1.1//EN" "http://www.w3.org/Graphics/SVG/1.1/DTD/svg11.dtd">
<svg version="1.1" id="Calque_1" xmlns="http://www.w3.org/2000/svg" xmlns:xlink="http://www.w3.org/1999/xlink" x="0px" y="0px"
	 width="566.93px" height="595.28px" viewBox="0 0 566.93 595.28" enable-background="new 0 0 566.93 595.28" xml:space="preserve">
<path fill="#65C7EF" d="M357.911,249.982c0-0.21-0.015-0.42-0.034-0.624l-0.016-0.189c-0.369-3.225-3.256-5.801-6.564-5.801H216.692
	c-3.312,0-6.183,2.563-6.568,5.85l-0.009,0.148c-0.019,0.202-0.036,0.409-0.036,0.616v95.393c0,3.646,2.967,6.612,6.613,6.612
	h134.604c3.646,0,6.614-2.966,6.614-6.612V249.982z M343.082,250.052l-59.085,47.267l-59.092-47.267H343.082z M351.228,345.306
	H216.765v-93.214l65.144,52.116c1.111,0.889,3.063,0.89,4.176-0.001l65.143-52.116V345.306z"/>
</svg>
