<?xml version="1.0" encoding="utf-8"?>
<!-- Generator: Adobe Illustrator 16.0.0, SVG Export Plug-In . SVG Version: 6.00 Build 0)  -->
<!DOCTYPE svg PUBLIC "-//W3C//DTD SVG 1.1//EN" "http://www.w3.org/Graphics/SVG/1.1/DTD/svg11.dtd">
<svg version="1.1" id="Calque_1" xmlns="http://www.w3.org/2000/svg" xmlns:xlink="http://www.w3.org/1999/xlink" x="0px" y="0px"
	 width="566.93px" height="595.28px" viewBox="0 0 566.93 595.28" enable-background="new 0 0 566.93 595.28" xml:space="preserve">
<path fill="#65C7EF" d="M200.762,353.147l-0.124-0.05l-78.194-37.573c-0.843-0.402-1.818-0.616-2.817-0.616
	c-0.999,0-1.977,0.215-2.829,0.62L37.896,353.44c-2.256,1.087-3.186,3.263-2.259,5.291c0.786,1.715,2.782,2.823,5.083,2.823h157.947
	c3.043,0,5.427-1.919,5.427-4.369C204.094,355.363,202.817,353.816,200.762,353.147z M38.57,357.555l79.955-38.418
	c0.388-0.184,0.814-0.222,1.105-0.222c0.29,0,0.713,0.038,1.087,0.218l79.962,38.422H38.57z"/>
<path fill="#65C7EF" d="M62.283,368.52H50.564c-1.103,0-2,0.897-2,2v53.828c0,1.103,0.897,2,2,2h11.719c1.103,0,2-0.897,2-2V370.52
	C64.283,369.417,63.386,368.52,62.283,368.52z M60.283,422.348h-7.719V372.52h7.719V422.348z"/>
<path fill="#65C7EF" d="M191.783,368.52h-11.719c-1.103,0-2,0.897-2,2v53.828c0,1.103,0.897,2,2,2h11.719c1.103,0,2-0.897,2-2
	V370.52C193.783,369.417,192.886,368.52,191.783,368.52z M189.783,422.348h-7.719V372.52h7.719V422.348z"/>
<path fill="#65C7EF" d="M127.033,368.52h-11.719c-1.103,0-2,0.897-2,2v53.828c0,1.103,0.897,2,2,2h11.719c1.103,0,2-0.897,2-2
	V370.52C129.033,369.417,128.136,368.52,127.033,368.52z M125.033,422.348h-7.719V372.52h7.719V422.348z"/>
<path fill="#65C7EF" d="M209.283,441.02H32.194c-1.103,0-2,0.897-2,2v13.953c0,1.103,0.897,2,2,2h177.089c1.103,0,2-0.897,2-2
	V443.02C211.283,441.917,210.386,441.02,209.283,441.02z M207.283,454.973H34.194v-9.953h173.089V454.973z"/>
<path fill="#65C7EF" d="M197.783,433.066h-154.5c-1.103,0-2,0.897-2,2s0.897,2,2,2h154.5c1.103,0,2-0.897,2-2
	S198.886,433.066,197.783,433.066z"/>
<path fill="#65C7EF" d="M119.694,330.287c-4.381,0-7.945,3.564-7.945,7.945s3.564,7.945,7.945,7.945s7.945-3.564,7.945-7.945
	S124.075,330.287,119.694,330.287z M119.694,342.178c-2.175,0-3.945-1.77-3.945-3.945s1.77-3.945,3.945-3.945
	s3.945,1.77,3.945,3.945S121.87,342.178,119.694,342.178z"/>
<path fill="#65C7EF" d="M309.806,526.408c-39.654,0-77.994-11.557-110.875-33.421c-0.69-0.459-0.877-1.39-0.418-2.079
	c0.459-0.689,1.391-0.877,2.08-0.419c32.388,21.536,70.154,32.919,109.214,32.919c39.063,0,76.83-11.385,109.219-32.923
	c0.69-0.458,1.621-0.271,2.08,0.418c0.459,0.69,0.271,1.621-0.418,2.08C387.804,514.851,349.462,526.408,309.806,526.408z"/>
<path fill="#65C7EF" d="M505.522,291.234c-0.71,0-1.341-0.506-1.474-1.229c-10.052-54.743-43.122-102.975-90.732-132.33
	c-0.705-0.435-0.925-1.359-0.489-2.064c0.435-0.706,1.36-0.923,2.063-0.49c48.332,29.8,81.904,78.766,92.109,134.342
	c0.149,0.815-0.39,1.597-1.205,1.746C505.704,291.226,505.612,291.234,505.522,291.234z"/>
<path fill="#65C7EF" d="M114.088,291.237c-0.09,0-0.181-0.008-0.273-0.025c-0.815-0.149-1.354-0.931-1.204-1.746
	c10.207-55.578,43.78-104.546,92.112-134.347c0.705-0.436,1.629-0.215,2.064,0.49c0.435,0.705,0.215,1.629-0.49,2.064
	c-47.61,29.356-80.682,77.59-90.736,132.335C115.428,290.731,114.797,291.237,114.088,291.237z"/>
<path fill="#65C7EF" d="M504.909,341.362c-0.374-0.53-0.985-0.848-1.635-0.848H479.02c-0.649,0-1.261,0.316-1.635,0.848
	c-0.374,0.53-0.467,1.213-0.249,1.825l6.91,19.38c0.283,0.794,1.041,1.328,1.884,1.328h10.43c0.843,0,1.6-0.533,1.883-1.328
	l6.916-19.381C505.376,342.575,505.283,341.894,504.909,341.362z M494.949,359.896h-7.609l-5.483-15.381h18.581L494.949,359.896z"/>
<path fill="#65C7EF" d="M475.481,445.951c-0.099,0.872,0.139,1.755,0.636,2.361l13.686,16.667c0.729,0.887,1.897,0.91,2.641,0.054
	l14.496-16.638c0.537-0.616,0.79-1.532,0.676-2.45l-9.438-75.896c-0.159-1.278-1.007-2.242-1.974-2.242h-10.118
	c-0.979,0-1.83,0.979-1.979,2.279L475.481,445.951z M487.804,373.15h6.705l0.108,0.877l8.869,71.312l-12.301,14.115l-11.589-14.113
	L487.804,373.15z"/>
<g>
	<path fill="#65C7EF" d="M272.205,179.034v1.498h-4.487v2.807h3.535v1.449h-3.535v2.863h4.487v1.505h-6.384v-10.122H272.205z
		 M271.806,176.619l-2.072,1.512c-0.051,0.038-0.099,0.068-0.144,0.092c-0.044,0.023-0.088,0.042-0.133,0.056
		c-0.044,0.014-0.091,0.023-0.14,0.028c-0.049,0.004-0.106,0.007-0.172,0.007h-1.357l1.372-1.414
		c0.056-0.057,0.108-0.103,0.157-0.141c0.049-0.037,0.099-0.066,0.15-0.087c0.052-0.021,0.109-0.035,0.175-0.042
		s0.145-0.011,0.238-0.011H271.806z"/>
	<path fill="#65C7EF" d="M280.969,179.034v1.547h-3.045v8.575h-1.884v-8.575h-3.059v-1.547H280.969z"/>
	<path fill="#65C7EF" d="M286.239,187.637c0.364,0,0.689-0.062,0.977-0.183s0.53-0.291,0.729-0.511s0.35-0.485,0.455-0.798
		c0.104-0.312,0.157-0.663,0.157-1.05v-6.062h1.883v6.062c0,0.602-0.097,1.158-0.29,1.669c-0.194,0.511-0.473,0.952-0.837,1.323
		s-0.805,0.66-1.323,0.868c-0.518,0.207-1.102,0.312-1.75,0.312s-1.231-0.104-1.75-0.312c-0.518-0.208-0.958-0.497-1.319-0.868
		s-0.64-0.812-0.833-1.323s-0.29-1.067-0.29-1.669v-6.062h1.883v6.055c0,0.388,0.053,0.737,0.157,1.051
		c0.105,0.312,0.256,0.579,0.451,0.801c0.196,0.222,0.438,0.394,0.725,0.515S285.876,187.637,286.239,187.637z"/>
	<path fill="#65C7EF" d="M301.346,184.095c0,0.741-0.123,1.423-0.371,2.044c-0.247,0.62-0.595,1.154-1.043,1.603
		c-0.447,0.448-0.986,0.796-1.617,1.043c-0.63,0.247-1.327,0.371-2.093,0.371h-3.863v-10.122h3.863c0.766,0,1.463,0.125,2.093,0.375
		c0.631,0.249,1.17,0.597,1.617,1.043c0.448,0.445,0.796,0.979,1.043,1.599C301.223,182.671,301.346,183.353,301.346,184.095z
		 M299.421,184.095c0-0.556-0.074-1.054-0.224-1.495c-0.149-0.44-0.362-0.814-0.638-1.12s-0.609-0.54-1.004-0.703
		s-0.839-0.245-1.334-0.245h-1.967v7.126h1.967c0.495,0,0.939-0.082,1.334-0.245s0.729-0.397,1.004-0.703s0.488-0.68,0.638-1.12
		C299.347,185.148,299.421,184.65,299.421,184.095z"/>
	<path fill="#65C7EF" d="M304.943,189.156h-1.89v-10.122h1.89V189.156z"/>
	<path fill="#65C7EF" d="M316.115,189.156h-1.456c-0.163,0-0.298-0.041-0.402-0.122c-0.105-0.082-0.181-0.184-0.228-0.305
		l-0.756-2.065h-4.193l-0.756,2.065c-0.037,0.107-0.11,0.205-0.221,0.294c-0.109,0.089-0.243,0.133-0.402,0.133h-1.463l3.976-10.122
		h1.926L316.115,189.156z M309.563,185.333h3.227l-1.231-3.367c-0.057-0.148-0.118-0.325-0.186-0.528
		c-0.068-0.203-0.135-0.423-0.2-0.661c-0.065,0.238-0.129,0.46-0.192,0.665c-0.062,0.205-0.125,0.385-0.186,0.539L309.563,185.333z"
		/>
	<path fill="#65C7EF" d="M318.354,179.044c0.057,0.007,0.106,0.021,0.15,0.042c0.045,0.021,0.088,0.051,0.13,0.091
		s0.089,0.092,0.14,0.157l5.313,6.77c-0.019-0.163-0.031-0.323-0.039-0.479c-0.007-0.156-0.01-0.303-0.01-0.438v-6.153h1.658v10.122
		h-0.973c-0.149,0-0.272-0.023-0.371-0.07c-0.098-0.046-0.193-0.13-0.287-0.252l-5.292-6.741c0.015,0.149,0.024,0.298,0.032,0.445
		c0.007,0.146,0.01,0.281,0.01,0.402v6.216h-1.658v-10.122h0.986C318.229,179.034,318.299,179.038,318.354,179.044z"/>
	<path fill="#65C7EF" d="M334.875,179.034v1.547h-3.045v8.575h-1.884v-8.575h-3.059v-1.547H334.875z"/>
	<path fill="#65C7EF" d="M341.497,180.875c-0.052,0.103-0.111,0.175-0.179,0.217s-0.148,0.063-0.241,0.063
		c-0.094,0-0.199-0.036-0.315-0.108s-0.254-0.153-0.413-0.241c-0.158-0.089-0.344-0.17-0.557-0.242
		c-0.212-0.072-0.463-0.108-0.752-0.108c-0.262,0-0.489,0.031-0.683,0.095c-0.193,0.062-0.357,0.15-0.49,0.263
		c-0.133,0.111-0.232,0.246-0.298,0.402c-0.064,0.156-0.098,0.328-0.098,0.515c0,0.237,0.066,0.437,0.199,0.595
		c0.134,0.159,0.31,0.294,0.529,0.406c0.219,0.111,0.469,0.212,0.749,0.301c0.279,0.089,0.565,0.184,0.857,0.283
		c0.291,0.101,0.577,0.218,0.857,0.351c0.279,0.133,0.529,0.301,0.749,0.504c0.219,0.203,0.396,0.451,0.528,0.745
		s0.199,0.651,0.199,1.071c0,0.457-0.078,0.886-0.234,1.284c-0.156,0.399-0.385,0.747-0.686,1.043
		c-0.302,0.297-0.669,0.53-1.103,0.7c-0.435,0.17-0.932,0.256-1.491,0.256c-0.322,0-0.64-0.032-0.952-0.095
		c-0.312-0.063-0.612-0.153-0.899-0.27s-0.556-0.257-0.805-0.42c-0.25-0.163-0.473-0.346-0.669-0.546l0.546-0.903
		c0.052-0.065,0.113-0.12,0.186-0.164c0.072-0.045,0.153-0.066,0.241-0.066c0.117,0,0.243,0.048,0.378,0.143
		c0.136,0.096,0.296,0.202,0.479,0.319c0.185,0.116,0.401,0.223,0.651,0.318s0.55,0.144,0.899,0.144
		c0.537,0,0.952-0.127,1.246-0.382c0.294-0.254,0.441-0.619,0.441-1.096c0-0.266-0.066-0.482-0.2-0.65
		c-0.133-0.168-0.309-0.31-0.528-0.424c-0.219-0.114-0.469-0.211-0.749-0.29c-0.279-0.08-0.564-0.166-0.854-0.26
		c-0.29-0.093-0.574-0.205-0.854-0.336c-0.279-0.13-0.529-0.301-0.749-0.511c-0.219-0.21-0.396-0.473-0.528-0.787
		c-0.133-0.315-0.199-0.704-0.199-1.166c0-0.368,0.073-0.728,0.221-1.078c0.146-0.35,0.361-0.66,0.644-0.931
		s0.629-0.487,1.039-0.651c0.411-0.163,0.88-0.245,1.407-0.245c0.598,0,1.148,0.094,1.652,0.28s0.934,0.448,1.288,0.784
		L341.497,180.875z"/>
</g>
<g>
	<path fill="#65C7EF" d="M98.207,482.352v1.498H93.72v2.807h3.535v1.449H93.72v2.863h4.487v1.506h-6.384v-10.123H98.207z
		 M97.808,479.938l-2.072,1.512c-0.051,0.037-0.099,0.068-0.144,0.092c-0.044,0.023-0.088,0.041-0.133,0.055
		c-0.044,0.014-0.091,0.023-0.14,0.029c-0.049,0.004-0.106,0.006-0.172,0.006H93.79l1.372-1.414
		c0.056-0.057,0.108-0.102,0.157-0.141c0.049-0.037,0.099-0.066,0.15-0.086c0.052-0.021,0.109-0.035,0.175-0.043
		c0.065-0.006,0.145-0.01,0.238-0.01H97.808z"/>
	<path fill="#65C7EF" d="M106.796,490.088c0.103,0,0.19,0.039,0.266,0.119l0.742,0.805c-0.411,0.508-0.916,0.898-1.516,1.168
		c-0.6,0.271-1.319,0.406-2.159,0.406c-0.752,0-1.428-0.129-2.027-0.385s-1.111-0.613-1.536-1.07
		c-0.425-0.459-0.75-1.004-0.977-1.639s-0.34-1.328-0.34-2.078c0-0.762,0.126-1.459,0.378-2.09c0.253-0.633,0.607-1.178,1.064-1.635
		s1.005-0.812,1.642-1.068c0.637-0.254,1.341-0.381,2.11-0.381c0.751,0,1.408,0.119,1.971,0.361c0.562,0.24,1.044,0.559,1.445,0.955
		l-0.63,0.875c-0.037,0.055-0.085,0.104-0.144,0.146s-0.139,0.062-0.241,0.062c-0.107,0-0.218-0.041-0.329-0.125
		c-0.112-0.084-0.255-0.176-0.427-0.273c-0.173-0.098-0.392-0.189-0.655-0.273s-0.599-0.125-1.004-0.125
		c-0.477,0-0.914,0.082-1.312,0.248c-0.399,0.166-0.742,0.402-1.029,0.711c-0.287,0.307-0.511,0.682-0.672,1.123
		s-0.241,0.938-0.241,1.488c0,0.568,0.08,1.074,0.241,1.518s0.379,0.816,0.654,1.121c0.275,0.303,0.6,0.535,0.973,0.695
		c0.374,0.162,0.775,0.242,1.204,0.242c0.257,0,0.489-0.014,0.697-0.043c0.207-0.027,0.398-0.072,0.573-0.133
		c0.176-0.061,0.341-0.139,0.497-0.234s0.312-0.213,0.466-0.354c0.047-0.041,0.096-0.076,0.146-0.102
		C106.679,490.1,106.734,490.088,106.796,490.088z"/>
	<path fill="#65C7EF" d="M118.934,487.414c0,0.74-0.124,1.428-0.371,2.061c-0.248,0.633-0.596,1.18-1.043,1.641
		c-0.448,0.463-0.987,0.824-1.617,1.082c-0.63,0.26-1.328,0.389-2.093,0.389c-0.766,0-1.465-0.129-2.097-0.389
		c-0.633-0.258-1.174-0.619-1.624-1.082c-0.45-0.461-0.8-1.008-1.047-1.641s-0.371-1.32-0.371-2.061c0-0.742,0.124-1.43,0.371-2.062
		s0.597-1.18,1.047-1.641c0.45-0.463,0.991-0.824,1.624-1.082c0.632-0.26,1.331-0.389,2.097-0.389c0.765,0,1.463,0.131,2.093,0.393
		c0.63,0.26,1.169,0.621,1.617,1.08c0.447,0.461,0.795,1.006,1.043,1.639C118.81,485.984,118.934,486.672,118.934,487.414z
		 M117.001,487.414c0-0.557-0.073-1.055-0.221-1.496c-0.146-0.439-0.357-0.814-0.633-1.123s-0.61-0.543-1.005-0.707
		c-0.395-0.162-0.839-0.244-1.333-0.244c-0.495,0-0.94,0.082-1.338,0.244c-0.396,0.164-0.733,0.398-1.011,0.707
		c-0.278,0.309-0.491,0.684-0.641,1.123c-0.149,0.441-0.225,0.939-0.225,1.496c0,0.555,0.075,1.053,0.225,1.494
		c0.149,0.439,0.362,0.814,0.641,1.119c0.277,0.307,0.614,0.541,1.011,0.703c0.397,0.164,0.843,0.246,1.338,0.246
		c0.494,0,0.938-0.082,1.333-0.246c0.395-0.162,0.729-0.396,1.005-0.703c0.275-0.305,0.486-0.68,0.633-1.119
		C116.928,488.467,117.001,487.969,117.001,487.414z"/>
	<path fill="#65C7EF" d="M122.301,490.92h4.053v1.555h-5.936v-10.123h1.883V490.92z"/>
	<path fill="#65C7EF" d="M134.04,482.352v1.498h-4.487v2.807h3.535v1.449h-3.535v2.863h4.487v1.506h-6.384v-10.123H134.04z"/>
	<path fill="#65C7EF" d="M141.096,484.193c-0.052,0.102-0.111,0.174-0.179,0.217c-0.067,0.041-0.148,0.062-0.241,0.062
		c-0.094,0-0.199-0.035-0.315-0.107s-0.254-0.154-0.413-0.242c-0.158-0.088-0.344-0.17-0.557-0.242
		c-0.212-0.072-0.463-0.107-0.752-0.107c-0.262,0-0.489,0.031-0.683,0.094s-0.357,0.15-0.49,0.264
		c-0.133,0.111-0.232,0.246-0.298,0.402c-0.064,0.156-0.098,0.328-0.098,0.514c0,0.238,0.066,0.438,0.199,0.596
		c0.134,0.158,0.31,0.293,0.529,0.406c0.219,0.111,0.469,0.211,0.749,0.301c0.279,0.088,0.565,0.184,0.857,0.283
		c0.291,0.1,0.577,0.217,0.857,0.35c0.279,0.133,0.529,0.301,0.749,0.504c0.219,0.203,0.396,0.451,0.528,0.746
		c0.133,0.293,0.199,0.65,0.199,1.07c0,0.457-0.078,0.887-0.234,1.285s-0.385,0.746-0.686,1.043
		c-0.302,0.297-0.669,0.529-1.103,0.699c-0.435,0.17-0.932,0.256-1.491,0.256c-0.322,0-0.64-0.031-0.952-0.094
		c-0.312-0.064-0.612-0.154-0.899-0.27c-0.287-0.117-0.556-0.258-0.805-0.42c-0.25-0.164-0.473-0.346-0.669-0.547l0.546-0.902
		c0.052-0.066,0.113-0.121,0.186-0.164c0.072-0.045,0.153-0.066,0.241-0.066c0.117,0,0.243,0.047,0.378,0.143
		c0.136,0.096,0.296,0.201,0.479,0.318c0.185,0.117,0.401,0.223,0.651,0.318s0.55,0.145,0.899,0.145
		c0.537,0,0.952-0.127,1.246-0.383c0.294-0.254,0.441-0.619,0.441-1.096c0-0.266-0.066-0.482-0.2-0.65
		c-0.133-0.168-0.309-0.309-0.528-0.424c-0.219-0.113-0.469-0.211-0.749-0.289c-0.279-0.08-0.564-0.166-0.854-0.26
		c-0.29-0.094-0.574-0.205-0.854-0.336c-0.279-0.131-0.529-0.301-0.749-0.512c-0.219-0.209-0.396-0.473-0.528-0.787
		s-0.199-0.703-0.199-1.166c0-0.367,0.073-0.727,0.221-1.078c0.146-0.35,0.361-0.66,0.644-0.93c0.282-0.271,0.629-0.488,1.039-0.652
		c0.411-0.162,0.88-0.244,1.407-0.244c0.598,0,1.148,0.094,1.652,0.279c0.504,0.188,0.934,0.449,1.288,0.785L141.096,484.193z"/>
</g>
<g>
	<path fill="#65C7EF" d="M456.634,483.352v1.498h-4.487v2.807h3.535v1.449h-3.535v2.863h4.487v1.506h-6.384v-10.123H456.634z"/>
	<path fill="#65C7EF" d="M459.461,483.363c0.057,0.006,0.106,0.02,0.15,0.041c0.045,0.021,0.088,0.051,0.13,0.092
		c0.042,0.039,0.089,0.092,0.14,0.156l5.313,6.77c-0.019-0.162-0.031-0.322-0.039-0.479c-0.007-0.156-0.01-0.303-0.01-0.438v-6.154
		h1.658v10.123h-0.973c-0.149,0-0.272-0.023-0.371-0.07c-0.098-0.047-0.193-0.131-0.287-0.252l-5.292-6.742
		c0.015,0.15,0.024,0.299,0.032,0.445c0.007,0.146,0.01,0.281,0.01,0.402v6.217h-1.658v-10.123h0.986
		C459.335,483.352,459.405,483.355,459.461,483.363z"/>
	<path fill="#65C7EF" d="M475.981,483.352v1.547h-3.045v8.576h-1.884v-8.576h-3.059v-1.547H475.981z"/>
	<path fill="#65C7EF" d="M479.124,489.52v3.955h-1.883v-10.123h3.087c0.69,0,1.282,0.072,1.774,0.215s0.896,0.342,1.211,0.598
		c0.315,0.256,0.546,0.564,0.693,0.92c0.146,0.357,0.221,0.75,0.221,1.18c0,0.342-0.051,0.664-0.15,0.967
		c-0.101,0.303-0.245,0.578-0.435,0.826c-0.188,0.246-0.422,0.465-0.7,0.65c-0.277,0.188-0.594,0.336-0.948,0.447
		c0.238,0.137,0.443,0.33,0.616,0.582l2.534,3.738h-1.694c-0.163,0-0.302-0.033-0.416-0.098c-0.115-0.066-0.212-0.16-0.291-0.281
		l-2.128-3.24c-0.079-0.121-0.167-0.207-0.263-0.26c-0.096-0.051-0.236-0.076-0.423-0.076H479.124z M479.124,488.168h1.176
		c0.355,0,0.664-0.045,0.928-0.133s0.48-0.211,0.651-0.367c0.17-0.156,0.297-0.342,0.381-0.557c0.085-0.215,0.127-0.451,0.127-0.707
		c0-0.514-0.17-0.908-0.508-1.184c-0.339-0.275-0.855-0.412-1.551-0.412h-1.204V488.168z"/>
	<path fill="#65C7EF" d="M492.732,483.352v1.498h-4.487v2.807h3.535v1.449h-3.535v2.863h4.487v1.506h-6.384v-10.123H492.732z"/>
	<path fill="#65C7EF" d="M496.309,489.91v3.564h-1.883v-10.123h3.297c0.677,0,1.263,0.08,1.757,0.238
		c0.495,0.158,0.903,0.381,1.226,0.666c0.321,0.283,0.56,0.625,0.714,1.021s0.23,0.83,0.23,1.303c0,0.488-0.081,0.938-0.244,1.346
		c-0.164,0.41-0.409,0.76-0.735,1.055c-0.327,0.293-0.735,0.521-1.226,0.686c-0.489,0.164-1.063,0.244-1.722,0.244H496.309z
		 M496.309,488.441h1.414c0.346,0,0.646-0.043,0.903-0.129c0.257-0.088,0.469-0.211,0.637-0.371
		c0.168-0.162,0.294-0.357,0.378-0.588c0.084-0.232,0.126-0.49,0.126-0.773c0-0.271-0.042-0.516-0.126-0.736
		c-0.084-0.219-0.21-0.406-0.378-0.561c-0.168-0.152-0.38-0.271-0.637-0.354c-0.257-0.08-0.558-0.121-0.903-0.121h-1.414V488.441z"
		/>
	<path fill="#65C7EF" d="M505.059,489.52v3.955h-1.883v-10.123h3.087c0.69,0,1.282,0.072,1.774,0.215s0.896,0.342,1.211,0.598
		c0.315,0.256,0.546,0.564,0.693,0.92c0.146,0.357,0.221,0.75,0.221,1.18c0,0.342-0.051,0.664-0.15,0.967
		c-0.101,0.303-0.245,0.578-0.435,0.826c-0.188,0.246-0.422,0.465-0.7,0.65c-0.277,0.188-0.594,0.336-0.948,0.447
		c0.238,0.137,0.443,0.33,0.616,0.582l2.534,3.738h-1.694c-0.163,0-0.302-0.033-0.416-0.098c-0.115-0.066-0.212-0.16-0.291-0.281
		l-2.128-3.24c-0.079-0.121-0.167-0.207-0.263-0.26c-0.096-0.051-0.236-0.076-0.423-0.076H505.059z M505.059,488.168h1.176
		c0.355,0,0.664-0.045,0.928-0.133s0.48-0.211,0.651-0.367c0.17-0.156,0.297-0.342,0.381-0.557c0.085-0.215,0.127-0.451,0.127-0.707
		c0-0.514-0.17-0.908-0.508-1.184c-0.339-0.275-0.855-0.412-1.551-0.412h-1.204V488.168z"/>
	<path fill="#65C7EF" d="M514.403,493.475h-1.89v-10.123h1.89V493.475z"/>
	<path fill="#65C7EF" d="M522.104,485.193c-0.052,0.102-0.111,0.174-0.179,0.217c-0.067,0.041-0.148,0.062-0.241,0.062
		c-0.094,0-0.199-0.035-0.315-0.107s-0.254-0.154-0.413-0.242c-0.158-0.088-0.344-0.17-0.557-0.242
		c-0.212-0.072-0.463-0.107-0.752-0.107c-0.262,0-0.489,0.031-0.683,0.094s-0.357,0.15-0.49,0.264
		c-0.133,0.111-0.232,0.246-0.298,0.402c-0.064,0.156-0.098,0.328-0.098,0.514c0,0.238,0.066,0.438,0.199,0.596
		c0.134,0.158,0.31,0.293,0.529,0.406c0.219,0.111,0.469,0.211,0.749,0.301c0.279,0.088,0.565,0.184,0.857,0.283
		c0.291,0.1,0.577,0.217,0.857,0.35c0.279,0.133,0.529,0.301,0.749,0.504c0.219,0.203,0.396,0.451,0.528,0.746
		c0.133,0.293,0.199,0.65,0.199,1.07c0,0.457-0.078,0.887-0.234,1.285s-0.385,0.746-0.686,1.043
		c-0.302,0.297-0.669,0.529-1.103,0.699c-0.435,0.17-0.932,0.256-1.491,0.256c-0.322,0-0.64-0.031-0.952-0.094
		c-0.312-0.064-0.612-0.154-0.899-0.27c-0.287-0.117-0.556-0.258-0.805-0.42c-0.25-0.164-0.473-0.346-0.669-0.547l0.546-0.902
		c0.052-0.066,0.113-0.121,0.186-0.164c0.072-0.045,0.153-0.066,0.241-0.066c0.117,0,0.243,0.047,0.378,0.143
		c0.136,0.096,0.296,0.201,0.479,0.318c0.185,0.117,0.401,0.223,0.651,0.318s0.55,0.145,0.899,0.145
		c0.537,0,0.952-0.127,1.246-0.383c0.294-0.254,0.441-0.619,0.441-1.096c0-0.266-0.066-0.482-0.2-0.65
		c-0.133-0.168-0.309-0.309-0.528-0.424c-0.219-0.113-0.469-0.211-0.749-0.289c-0.279-0.08-0.564-0.166-0.854-0.26
		c-0.29-0.094-0.574-0.205-0.854-0.336c-0.279-0.131-0.529-0.301-0.749-0.512c-0.219-0.209-0.396-0.473-0.528-0.787
		s-0.199-0.703-0.199-1.166c0-0.367,0.073-0.727,0.221-1.078c0.146-0.35,0.361-0.66,0.644-0.93c0.282-0.271,0.629-0.488,1.039-0.652
		c0.411-0.162,0.88-0.244,1.407-0.244c0.598,0,1.148,0.094,1.652,0.279c0.504,0.188,0.934,0.449,1.288,0.785L522.104,485.193z"/>
	<path fill="#65C7EF" d="M530.573,483.352v1.498h-4.487v2.807h3.535v1.449h-3.535v2.863h4.487v1.506h-6.384v-10.123H530.573z"/>
	<path fill="#65C7EF" d="M537.629,485.193c-0.052,0.102-0.111,0.174-0.179,0.217c-0.067,0.041-0.148,0.062-0.241,0.062
		c-0.094,0-0.199-0.035-0.315-0.107s-0.254-0.154-0.413-0.242c-0.158-0.088-0.344-0.17-0.557-0.242
		c-0.212-0.072-0.463-0.107-0.752-0.107c-0.262,0-0.489,0.031-0.683,0.094s-0.357,0.15-0.49,0.264
		c-0.133,0.111-0.232,0.246-0.298,0.402c-0.064,0.156-0.098,0.328-0.098,0.514c0,0.238,0.066,0.438,0.199,0.596
		c0.134,0.158,0.31,0.293,0.529,0.406c0.219,0.111,0.469,0.211,0.749,0.301c0.279,0.088,0.565,0.184,0.857,0.283
		c0.291,0.1,0.577,0.217,0.857,0.35c0.279,0.133,0.529,0.301,0.749,0.504c0.219,0.203,0.396,0.451,0.528,0.746
		c0.133,0.293,0.199,0.65,0.199,1.07c0,0.457-0.078,0.887-0.234,1.285s-0.385,0.746-0.686,1.043
		c-0.302,0.297-0.669,0.529-1.103,0.699c-0.435,0.17-0.932,0.256-1.491,0.256c-0.322,0-0.64-0.031-0.952-0.094
		c-0.312-0.064-0.612-0.154-0.899-0.27c-0.287-0.117-0.556-0.258-0.805-0.42c-0.25-0.164-0.473-0.346-0.669-0.547l0.546-0.902
		c0.052-0.066,0.113-0.121,0.186-0.164c0.072-0.045,0.153-0.066,0.241-0.066c0.117,0,0.243,0.047,0.378,0.143
		c0.136,0.096,0.296,0.201,0.479,0.318c0.185,0.117,0.401,0.223,0.651,0.318s0.55,0.145,0.899,0.145
		c0.537,0,0.952-0.127,1.246-0.383c0.294-0.254,0.441-0.619,0.441-1.096c0-0.266-0.066-0.482-0.2-0.65
		c-0.133-0.168-0.309-0.309-0.528-0.424c-0.219-0.113-0.469-0.211-0.749-0.289c-0.279-0.08-0.564-0.166-0.854-0.26
		c-0.29-0.094-0.574-0.205-0.854-0.336c-0.279-0.131-0.529-0.301-0.749-0.512c-0.219-0.209-0.396-0.473-0.528-0.787
		s-0.199-0.703-0.199-1.166c0-0.367,0.073-0.727,0.221-1.078c0.146-0.35,0.361-0.66,0.644-0.93c0.282-0.271,0.629-0.488,1.039-0.652
		c0.411-0.162,0.88-0.244,1.407-0.244c0.598,0,1.148,0.094,1.652,0.279c0.504,0.188,0.934,0.449,1.288,0.785L537.629,485.193z"/>
</g>
<path fill="#65C7EF" d="M343.476,129.926c0.082-0.221,0.123-0.454,0.123-0.692v-22.067l-4,1.322v19.415
	c0,11.383-19.311,21-42.167,21c-22.016,0-40.905-8.92-42.106-19.885c-0.04-0.371-0.061-0.746-0.061-1.115v-19.646l-4-1.504v22.479
	c0,0.239,0.042,0.472,0.123,0.694l0.05,0.191c2.041,12.99,21.813,22.785,45.994,22.785c24.187,0,43.96-9.796,45.994-22.787
	L343.476,129.926z"/>
<path fill="#65C7EF" d="M367.692,92.782c0.027-2.94-2.743-5.41-8.013-7.142l-46.127-15.162c-4.376-1.438-10.169-2.23-16.312-2.23
	c-6.493,0-12.604,0.87-17.206,2.449l-42.948,14.741c-5.24,1.798-7.984,4.32-7.938,7.295c0.047,2.974,2.87,5.408,8.164,7.041
	l44.275,13.652c4.509,1.39,10.491,2.156,16.843,2.156c6.352,0,12.333-0.766,16.841-2.156l44.276-13.652
	C364.85,98.139,367.666,95.721,367.692,92.782z M314.095,109.604c-4.077,1.257-9.786,1.978-15.663,1.978s-11.587-0.721-15.665-1.978
	l-44.275-13.652c-3.631-1.119-4.796-2.336-5.066-2.683l-0.465-0.596l0.446-0.61c0.259-0.355,1.384-1.608,4.979-2.842l42.948-14.741
	c4.134-1.419,9.932-2.232,15.908-2.232c5.73,0,11.08,0.721,15.063,2.03l46.127,15.162c3.201,1.052,4.452,2.106,4.913,2.641
	l0.572,0.664l-0.584,0.654c-0.469,0.526-1.737,1.557-4.962,2.552L314.095,109.604z"/>
<path fill="#65C7EF" d="M362.043,115.909l-0.69-0.225v-13.876l-4,1.299v12.73l-0.627,0.252c-2.986,1.201-4.916,4.048-4.916,7.253
	c0,3.271,2.074,6.222,5.162,7.345l0.658,0.239v5.323c0,1.103,0.897,2,2,2s2-0.897,2-2v-5.322l0.658-0.239
	c3.088-1.122,5.162-4.074,5.162-7.345C367.45,119.949,365.277,116.962,362.043,115.909z M359.631,127.165
	c-2.107,0-3.821-1.714-3.821-3.821c0-2.106,1.714-3.819,3.821-3.819c2.106,0,3.819,1.713,3.819,3.819
	C363.45,125.45,361.737,127.165,359.631,127.165z"/>
</svg>
